<svg width="95" height="104" viewBox="0 0 95 104" fill="none" xmlns="http://www.w3.org/2000/svg">
<g clip-path="url(#clip0_2682_8011)">
<path d="M82.1417 98.7471H16.1356C11.4995 98.7471 7.75391 95.0015 7.75391 90.3654V19.4612C7.75391 14.8251 11.4995 11.0795 16.1356 11.0795H82.1417C86.7779 11.0795 90.5234 14.8251 90.5234 19.4612V90.3654C90.5234 95.0015 86.7779 98.7471 82.1417 98.7471Z" fill="#EB6331"/>
<path d="M82.1417 94.8182H16.1356C11.4995 94.8182 7.75391 91.0727 7.75391 86.4365V90.3655C7.75391 95.0016 11.4995 98.7472 16.1356 98.7472H82.1417C86.7779 98.7472 90.5234 95.0016 90.5234 90.3655V86.4365C90.5234 91.0727 86.7779 94.8182 82.1417 94.8182Z" fill="#DD562C"/>
<path d="M82.1417 98.7471H16.1356C11.4995 98.7471 7.75391 95.0015 7.75391 90.3654V19.4612C7.75391 14.8251 11.4995 11.0795 16.1356 11.0795H82.1417C86.7779 11.0795 90.5234 14.8251 90.5234 19.4612V90.3654C90.5234 95.0015 86.7779 98.7471 82.1417 98.7471Z" stroke="#511C64" stroke-width="1.57157" stroke-miterlimit="10" stroke-linecap="round" stroke-linejoin="round"/>
<path opacity="0.2" d="M78.7355 103.305H12.7294C8.09324 103.305 4.34766 99.5591 4.34766 94.923V16.0562C4.34766 11.42 8.09324 7.67444 12.7294 7.67444H78.7355C83.3716 7.67444 87.1172 11.42 87.1172 16.0562V94.923C87.1172 99.5591 83.3716 103.305 78.7355 103.305Z" fill="#241228" stroke="#241228" stroke-width="1.57157" stroke-miterlimit="10" stroke-linecap="round" stroke-linejoin="round"/>
<path d="M82.1398 92.7228H16.1337C11.4975 92.7228 7.75195 88.9772 7.75195 84.3411V13.4369C7.75195 8.80076 11.4975 5.05518 16.1337 5.05518H82.1398C86.7759 5.05518 90.5215 8.80076 90.5215 13.4369V84.3411C90.5215 88.9772 86.7759 92.7228 82.1398 92.7228Z" fill="#FDA22F"/>
<path d="M82.1398 92.7228H16.1337C11.4975 92.7228 7.75195 88.9772 7.75195 84.3411V13.4369C7.75195 8.80076 11.4975 5.05518 16.1337 5.05518H82.1398C86.7759 5.05518 90.5215 8.80076 90.5215 13.4369V84.3411C90.5215 88.9772 86.7759 92.7228 82.1398 92.7228Z" fill="#FDA22F"/>
<path d="M12.65 84.3411V13.4369C12.65 8.80076 16.3956 5.05518 21.0317 5.05518H16.1337C11.4975 5.05518 7.75195 8.80076 7.75195 13.4369V84.3411C7.75195 88.9772 11.4975 92.7228 16.1337 92.7228H21.0317C16.3956 92.7228 12.65 88.9772 12.65 84.3411Z" fill="#FC9435"/>
<path d="M82.1402 5.05518H77.2422C81.8783 5.05518 85.6239 8.80076 85.6239 13.4369V84.3411C85.6239 88.9772 81.8783 92.7228 77.2422 92.7228H82.1402C86.7764 92.7228 90.522 88.9772 90.522 84.3411V13.4369C90.522 8.80076 86.7764 5.05518 82.1402 5.05518Z" fill="#FFB331"/>
<path d="M82.1398 92.7228H16.1337C11.4975 92.7228 7.75195 88.9772 7.75195 84.3411V13.4369C7.75195 8.80076 11.4975 5.05518 16.1337 5.05518H82.1398C86.7759 5.05518 90.5215 8.80076 90.5215 13.4369V84.3411C90.5215 88.9772 86.7759 92.7228 82.1398 92.7228Z" stroke="#511C64" stroke-width="1.57157" stroke-miterlimit="10" stroke-linecap="round" stroke-linejoin="round"/>
<path d="M78.4726 32.7411H19.8005C18.648 32.7411 17.7051 31.7982 17.7051 30.6457V17.0254C17.7051 15.8729 18.648 14.9299 19.8005 14.9299H78.4726C79.6251 14.9299 80.568 15.8729 80.568 17.0254V30.6457C80.568 31.7982 79.6251 32.7411 78.4726 32.7411Z" fill="#A5F3FF"/>
<path d="M70.9586 19.2517L70.4609 18.7279L70.9586 18.2302H74.809L75.3066 18.6493L74.7828 19.2517H70.9586Z" fill="#511C64"/>
<path opacity="0.2" d="M69.8047 23.233V19.3827L70.3024 18.885L70.8 19.3827V23.233L70.3024 23.7307L69.8047 23.233Z" fill="#511C64"/>
<path d="M74.9375 23.2328V19.3825L75.4352 18.78L75.9328 19.3825V23.2328L75.4352 23.7305L74.9375 23.2328Z" fill="#511C64"/>
<path opacity="0.2" d="M70.9586 24.3593L70.4609 23.8617L70.9586 23.364H74.7828L75.3066 23.8617L74.7828 24.3593H70.9586Z" fill="#511C64"/>
<path opacity="0.2" d="M69.8047 28.4454V24.5951L70.3024 24.0974L70.8 24.5951V28.4454L70.3024 28.9431L69.8047 28.4454Z" fill="#511C64"/>
<path d="M74.9375 28.4453V24.5949L75.4352 24.0187L75.9328 24.5949V28.4453L75.4352 28.9429L74.9375 28.4453Z" fill="#511C64"/>
<path opacity="0.2" d="M70.9586 29.5979L70.4609 29.0741L70.9586 28.5764H74.7828L75.3066 29.0741L74.7828 29.5979H70.9586Z" fill="#511C64"/>
<path d="M61.895 19.2517L61.3711 18.7279L61.895 18.2302H65.7191L66.2168 18.6493L65.7191 19.2517H61.895Z" fill="#511C64"/>
<path opacity="0.2" d="M60.7422 23.233V19.3827L61.2398 18.885L61.7375 19.3827V23.233L61.2398 23.7307L60.7422 23.233Z" fill="#511C64"/>
<path d="M65.875 23.2328V19.3825L66.3727 18.78L66.8703 19.3825V23.2328L66.3727 23.7305L65.875 23.2328Z" fill="#511C64"/>
<path d="M61.895 24.3591L61.3711 23.8614L61.895 23.3638H65.7191L66.2168 23.8614L65.7191 24.3591H61.895Z" fill="#511C64"/>
<path opacity="0.2" d="M60.7422 28.4454V24.5951L61.2398 24.0974L61.7375 24.5951V28.4454L61.2398 28.9431L60.7422 28.4454Z" fill="#511C64"/>
<path d="M65.875 28.4453V24.5949L66.3727 24.0187L66.8703 24.5949V28.4453L66.3727 28.9429L65.875 28.4453Z" fill="#511C64"/>
<path d="M61.895 29.5979L61.3711 29.0741L61.895 28.5764H65.7191L66.2168 29.0741L65.7191 29.5979H61.895Z" fill="#511C64"/>
<g opacity="0.2">
<path opacity="0.2" d="M43.6891 19.2517L43.1914 18.7279L43.6891 18.2302H47.5394L48.0371 18.6493L47.5394 19.2517H43.6891Z" fill="#511C64"/>
<path opacity="0.2" d="M42.5371 23.233V19.3827L43.061 18.885L43.5586 19.3827V23.233L43.061 23.7307L42.5371 23.233Z" fill="#511C64"/>
<path opacity="0.2" d="M47.6699 23.2328V19.3825L48.1676 18.78L48.6914 19.3825V23.2328L48.1676 23.7305L47.6699 23.2328Z" fill="#511C64"/>
<path opacity="0.2" d="M43.6891 24.3593L43.1914 23.8617L43.6891 23.364H47.5394L48.0371 23.8617L47.5394 24.3593H43.6891Z" fill="#511C64"/>
<path opacity="0.2" d="M42.5371 28.4454V24.5951L43.061 24.0974L43.5586 24.5951V28.4454L43.061 28.9431L42.5371 28.4454Z" fill="#511C64"/>
<path opacity="0.2" d="M47.6699 28.4453V24.5949L48.1676 24.0187L48.6914 24.5949V28.4453L48.1676 28.9429L47.6699 28.4453Z" fill="#511C64"/>
<path opacity="0.2" d="M43.6891 29.5979L43.1914 29.0741L43.6891 28.5764H47.5394L48.0371 29.0741L47.5394 29.5979H43.6891Z" fill="#511C64"/>
</g>
<g opacity="0.2">
<path opacity="0.2" d="M52.7789 19.2517L52.2812 18.7279L52.7789 18.2302H56.6293L57.1269 18.6493L56.6031 19.2517H52.7789Z" fill="#511C64"/>
<path opacity="0.2" d="M51.625 23.233V19.3827L52.1227 18.885L52.6465 19.3827V23.233L52.1227 23.7307L51.625 23.233Z" fill="#511C64"/>
<path opacity="0.2" d="M56.7578 23.2328V19.3825L57.2555 18.78L57.7793 19.3825V23.2328L57.2555 23.7305L56.7578 23.2328Z" fill="#511C64"/>
<path opacity="0.2" d="M52.7789 24.3593L52.2812 23.8617L52.7789 23.364H56.6293L57.1269 23.8617L56.6293 24.3593H52.7789Z" fill="#511C64"/>
<path opacity="0.2" d="M51.625 28.4454V24.5951L52.1227 24.0974L52.6465 24.5951V28.4454L52.1227 28.9431L51.625 28.4454Z" fill="#511C64"/>
<path opacity="0.2" d="M56.7578 28.4453V24.5949L57.2555 24.0187L57.7793 24.5949V28.4453L57.2555 28.9429L56.7578 28.4453Z" fill="#511C64"/>
<path opacity="0.2" d="M52.7789 29.5979L52.2812 29.0741L52.7789 28.5764H56.6293L57.1269 29.0741L56.6293 29.5979H52.7789Z" fill="#511C64"/>
</g>
<g opacity="0.2">
<path opacity="0.2" d="M25.5375 19.2517L25.0137 18.7279L25.5375 18.2302H29.3617L29.8594 18.6493L29.3617 19.2517H25.5375Z" fill="#511C64"/>
<path opacity="0.2" d="M24.3848 23.233V19.3827L24.8824 18.885L25.3801 19.3827V23.233L24.8824 23.7307L24.3848 23.233Z" fill="#511C64"/>
<path opacity="0.2" d="M29.5176 23.2328V19.3825L30.0152 18.78L30.5129 19.3825V23.2328L30.0152 23.7305L29.5176 23.2328Z" fill="#511C64"/>
<path opacity="0.2" d="M25.5375 24.3591L25.0137 23.8614L25.5375 23.3638H29.3617L29.8594 23.8614L29.3617 24.3591H25.5375Z" fill="#511C64"/>
<path opacity="0.2" d="M24.3848 28.4454V24.5951L24.8824 24.0974L25.3801 24.5951V28.4454L24.8824 28.9431L24.3848 28.4454Z" fill="#511C64"/>
<path opacity="0.2" d="M29.5176 28.4453V24.5949L30.0152 24.0187L30.5129 24.5949V28.4453L30.0152 28.9429L29.5176 28.4453Z" fill="#511C64"/>
<path opacity="0.2" d="M25.5375 29.5979L25.0137 29.0741L25.5375 28.5764H29.3617L29.8594 29.0741L29.3617 29.5979H25.5375Z" fill="#511C64"/>
</g>
<g opacity="0.2">
<path opacity="0.2" d="M34.5992 19.2517L34.1016 18.7279L34.5992 18.2302H38.4496L38.9472 18.6493L38.4496 19.2517H34.5992Z" fill="#511C64"/>
<path opacity="0.2" d="M33.4727 23.233V19.3827L33.9703 18.885L34.468 19.3827V23.233L33.9703 23.7307L33.4727 23.233Z" fill="#511C64"/>
<path opacity="0.2" d="M38.5801 23.2331V19.3827L39.1039 18.7803L39.6016 19.3827V23.2331L39.1039 23.7307L38.5801 23.2331Z" fill="#511C64"/>
<path opacity="0.2" d="M34.5992 24.3591L34.1016 23.8614L34.5992 23.3638H38.4496L38.9472 23.8614L38.4496 24.3591H34.5992Z" fill="#511C64"/>
<path opacity="0.2" d="M33.4727 28.4454V24.5951L33.9703 24.0974L34.468 24.5951V28.4454L33.9703 28.9431L33.4727 28.4454Z" fill="#511C64"/>
<path opacity="0.2" d="M38.5801 28.4454V24.595L39.1039 24.0188L39.6016 24.595V28.4454L39.1039 28.9431L38.5801 28.4454Z" fill="#511C64"/>
<path opacity="0.2" d="M34.5992 29.5979L34.1016 29.0741L34.5992 28.5764H38.4496L38.9472 29.0741L38.4496 29.5979H34.5992Z" fill="#511C64"/>
</g>
<path opacity="0.43" d="M78.4726 20.6924H19.8005C18.648 20.6924 17.7051 19.7494 17.7051 18.5969V17.0254C17.7051 15.8729 18.648 14.9299 19.8005 14.9299H78.4726C79.6251 14.9299 80.568 15.8729 80.568 17.0254V18.5969C80.568 19.7494 79.6251 20.6924 78.4726 20.6924Z" fill="#D2FCFB"/>
<path d="M78.4726 32.7411H19.8005C18.648 32.7411 17.7051 31.7982 17.7051 30.6457V17.0254C17.7051 15.8729 18.648 14.9299 19.8005 14.9299H78.4726C79.6251 14.9299 80.568 15.8729 80.568 17.0254V30.6457C80.568 31.7982 79.6251 32.7411 78.4726 32.7411Z" stroke="#511C64" stroke-width="1.57157" stroke-miterlimit="10" stroke-linecap="round" stroke-linejoin="round"/>
<path d="M30.5391 59.1436H17.9665C16.814 59.1436 15.8711 58.2006 15.8711 57.0481V44.4756C15.8711 43.3231 16.814 42.3801 17.9665 42.3801H30.5391C31.6916 42.3801 32.6345 43.3231 32.6345 44.4756V57.0481C32.6345 58.2268 31.6916 59.1436 30.5391 59.1436Z" fill="#FC9435" stroke="#FC9435" stroke-width="1.57157" stroke-miterlimit="10"/>
<path d="M53.7481 59.1435H41.1755C40.023 59.1435 39.0801 58.2005 39.0801 57.048V44.4754C39.0801 43.3229 40.023 42.38 41.1755 42.38H53.7481C54.9006 42.38 55.8435 43.3229 55.8435 44.4754V57.048C55.8435 58.2267 54.9006 59.1435 53.7481 59.1435Z" fill="#FC9435" stroke="#FC9435" stroke-width="1.57157" stroke-miterlimit="10"/>
<path d="M30.5391 82.3242H17.9665C16.814 82.3242 15.8711 81.3813 15.8711 80.2288V67.6562C15.8711 66.5037 16.814 65.5608 17.9665 65.5608H30.5391C31.6916 65.5608 32.6345 66.5037 32.6345 67.6562V80.2288C32.6345 81.4075 31.6916 82.3242 30.5391 82.3242Z" fill="#FC9435" stroke="#FC9435" stroke-width="1.57157" stroke-miterlimit="10"/>
<path d="M53.7481 82.3242H41.1755C40.023 82.3242 39.0801 81.3813 39.0801 80.2288V67.6562C39.0801 66.5037 40.023 65.5608 41.1755 65.5608H53.7481C54.9006 65.5608 55.8435 66.5037 55.8435 67.6562V80.2288C55.8435 81.4075 54.9006 82.3242 53.7481 82.3242Z" fill="#FC9435" stroke="#FC9435" stroke-width="1.57157" stroke-miterlimit="10"/>
<path d="M76.7969 82.3242H64.2243C63.0719 82.3242 62.1289 81.3812 62.1289 80.2287V44.4754C62.1289 43.3229 63.0719 42.38 64.2243 42.38H76.7969C77.9494 42.38 78.8924 43.3229 78.8924 44.4754V80.2287C78.8924 81.4074 77.9494 82.3242 76.7969 82.3242Z" fill="#FC9435" stroke="#FC9435" stroke-width="1.57157" stroke-miterlimit="10"/>
<path d="M55.4239 57.5719H42.8513C41.6988 57.5719 40.7559 56.629 40.7559 55.4765V42.9039C40.7559 41.7514 41.6988 40.8085 42.8513 40.8085H55.4239C56.5764 40.8085 57.5193 41.7514 57.5193 42.9039V55.4765C57.5193 56.6552 56.5764 57.5719 55.4239 57.5719Z" fill="#FF82A0"/>
<path d="M78.4727 80.6217H65.9001C64.7476 80.6217 63.8047 79.6787 63.8047 78.5262V42.9039C63.8047 41.7514 64.7476 40.8085 65.9001 40.8085H78.4727C79.6252 40.8085 80.5681 41.7514 80.5681 42.9039V78.5262C80.5681 79.7049 79.6252 80.6217 78.4727 80.6217Z" fill="#B078FD"/>
<path d="M66.9216 78.7882C66.3716 78.7882 65.9001 78.3429 65.9001 77.7667V40.8085C64.7476 40.8085 63.8047 41.7514 63.8047 42.9039V78.5262C63.8047 79.6787 64.7476 80.6217 65.9001 80.6217H78.4727C79.5466 80.6217 80.411 79.8097 80.542 78.7882H66.9216Z" fill="#A270F2"/>
<path d="M78.4727 80.6217H65.9001C64.7476 80.6217 63.8047 79.6787 63.8047 78.5262V42.9039C63.8047 41.7514 64.7476 40.8085 65.9001 40.8085H78.4727C79.6252 40.8085 80.5681 41.7514 80.5681 42.9039V78.5262C80.5681 79.7049 79.6252 80.6217 78.4727 80.6217Z" stroke="#511C64" stroke-width="1.57157" stroke-miterlimit="10" stroke-linecap="round" stroke-linejoin="round"/>
<path d="M75.9576 57.3624H68.4141V59.2483H75.9576V57.3624Z" fill="#511C64"/>
<path d="M75.9576 60.1913H68.4141V62.0772H75.9576V60.1913Z" fill="#511C64"/>
<path d="M75.1719 43.0873H76.4291C77.3983 43.0873 78.1841 43.8731 78.1841 44.8422V50.0022" stroke="white" stroke-width="0.785787" stroke-miterlimit="10" stroke-linecap="round" stroke-linejoin="round"/>
<path d="M43.8728 55.7384C43.3228 55.7384 42.8513 55.2931 42.8513 54.7169V40.8085C41.6988 40.8085 40.7559 41.7514 40.7559 42.9039V55.4765C40.7559 56.629 41.6988 57.5719 42.8513 57.5719H55.4239C56.4978 57.5719 57.3622 56.7599 57.4931 55.7384H43.8728Z" fill="#F27095"/>
<path d="M55.4239 57.5719H42.8513C41.6988 57.5719 40.7559 56.629 40.7559 55.4765V42.9039C40.7559 41.7514 41.6988 40.8085 42.8513 40.8085H55.4239C56.5764 40.8085 57.5193 41.7514 57.5193 42.9039V55.4765C57.5193 56.6552 56.5764 57.5719 55.4239 57.5719Z" stroke="#511C64" stroke-width="1.57157" stroke-miterlimit="10" stroke-linecap="round" stroke-linejoin="round"/>
<path d="M52.4103 48.3783H45.8359V50.0284H52.4103V48.3783Z" fill="#511C64"/>
<path d="M53.3809 43.0873H53.9571C54.6119 43.0873 55.162 43.6373 55.162 44.2922V46.0995" stroke="white" stroke-width="0.785787" stroke-miterlimit="10" stroke-linecap="round" stroke-linejoin="round"/>
<path d="M32.3731 57.5719H19.8005C18.648 57.5719 17.7051 56.629 17.7051 55.4765V42.9039C17.7051 41.7514 18.648 40.8085 19.8005 40.8085H32.3731C33.5256 40.8085 34.4685 41.7514 34.4685 42.9039V55.4765C34.4685 56.6552 33.5256 57.5719 32.3731 57.5719Z" fill="#FF82A0"/>
<path d="M20.822 55.7384C20.272 55.7384 19.8005 55.2931 19.8005 54.7169V40.8085C18.648 40.8085 17.7051 41.7514 17.7051 42.9039V55.4765C17.7051 56.629 18.648 57.5719 19.8005 57.5719H32.3731C33.447 57.5719 34.3114 56.7599 34.4423 55.7384H20.822Z" fill="#F27095"/>
<path d="M32.3731 57.5719H19.8005C18.648 57.5719 17.7051 56.629 17.7051 55.4765V42.9039C17.7051 41.7514 18.648 40.8085 19.8005 40.8085H32.3731C33.5256 40.8085 34.4685 41.7514 34.4685 42.9039V55.4765C34.4685 56.6552 33.5256 57.5719 32.3731 57.5719Z" stroke="#511C64" stroke-width="1.57157" stroke-miterlimit="10" stroke-linecap="round" stroke-linejoin="round"/>
<path d="M28.9943 48.3783H22.4199V50.0284H28.9943V48.3783Z" fill="#511C64"/>
<path d="M26.5254 52.4931L26.5254 45.9187L24.8752 45.9187L24.8752 52.4931L26.5254 52.4931Z" fill="#511C64"/>
<path d="M30.1992 43.0873H30.7755C31.4303 43.0873 31.9803 43.6373 31.9803 44.2922V46.0995" stroke="white" stroke-width="0.785787" stroke-miterlimit="10" stroke-linecap="round" stroke-linejoin="round"/>
<path d="M32.3731 80.6217H19.8005C18.648 80.6217 17.7051 79.6788 17.7051 78.5263V65.9537C17.7051 64.8012 18.648 63.8583 19.8005 63.8583H32.3731C33.5256 63.8583 34.4685 64.8012 34.4685 65.9537V78.5263C34.4685 79.705 33.5256 80.6217 32.3731 80.6217Z" fill="#FF82A0"/>
<path d="M20.822 78.7882C20.272 78.7882 19.8005 78.343 19.8005 77.7667V63.8583C18.648 63.8583 17.7051 64.8012 17.7051 65.9537V78.5263C17.7051 79.6788 18.648 80.6217 19.8005 80.6217H32.3731C33.447 80.6217 34.3114 79.8097 34.4423 78.7882H20.822Z" fill="#F27095"/>
<path d="M32.3731 80.6217H19.8005C18.648 80.6217 17.7051 79.6788 17.7051 78.5263V65.9537C17.7051 64.8012 18.648 63.8583 19.8005 63.8583H32.3731C33.5256 63.8583 34.4685 64.8012 34.4685 65.9537V78.5263C34.4685 79.705 33.5256 80.6217 32.3731 80.6217Z" stroke="#511C64" stroke-width="1.57157" stroke-miterlimit="10" stroke-linecap="round" stroke-linejoin="round"/>
<path d="M28.9828 73.984L24.334 69.3352L23.1672 70.502L27.8159 75.1508L28.9828 73.984Z" fill="#511C64"/>
<path d="M24.3512 75.1501L29 70.5013L27.8332 69.3345L23.1844 73.9833L24.3512 75.1501Z" fill="#511C64"/>
<path d="M30.1992 66.3204H30.7755C31.4303 66.3204 31.9803 66.8705 31.9803 67.5253V69.3326" stroke="white" stroke-width="0.785787" stroke-miterlimit="10" stroke-linecap="round" stroke-linejoin="round"/>
<path d="M55.4239 80.6217H42.8513C41.6988 80.6217 40.7559 79.6788 40.7559 78.5263V65.9537C40.7559 64.8012 41.6988 63.8583 42.8513 63.8583H55.4239C56.5764 63.8583 57.5193 64.8012 57.5193 65.9537V78.5263C57.5193 79.705 56.5764 80.6217 55.4239 80.6217Z" fill="#FF82A0"/>
<path d="M43.8728 78.7882C43.3228 78.7882 42.8513 78.343 42.8513 77.7667V63.8583C41.6988 63.8583 40.7559 64.8012 40.7559 65.9537V78.5263C40.7559 79.6788 41.6988 80.6217 42.8513 80.6217H55.4239C56.4978 80.6217 57.3622 79.8097 57.4931 78.7882H43.8728Z" fill="#F27095"/>
<path d="M55.4239 80.6217H42.8513C41.6988 80.6217 40.7559 79.6788 40.7559 78.5263V65.9537C40.7559 64.8012 41.6988 63.8583 42.8513 63.8583H55.4239C56.5764 63.8583 57.5193 64.8012 57.5193 65.9537V78.5263C57.5193 79.705 56.5764 80.6217 55.4239 80.6217Z" stroke="#511C64" stroke-width="1.57157" stroke-miterlimit="10" stroke-linecap="round" stroke-linejoin="round"/>
<path d="M52.4103 71.4281H45.8359V73.0782H52.4103V71.4281Z" fill="#511C64"/>
<path d="M49.9648 75.5348L49.9648 73.8846L48.3147 73.8846L48.3147 75.5348L49.9648 75.5348Z" fill="#511C64"/>
<path d="M49.9492 70.5956L49.9492 68.9454L48.2991 68.9454L48.2991 70.5956L49.9492 70.5956Z" fill="#511C64"/>
<path d="M53.3809 66.3204H53.9571C54.6119 66.3204 55.162 66.8705 55.162 67.5253V69.3326" stroke="white" stroke-width="0.785787" stroke-miterlimit="10" stroke-linecap="round" stroke-linejoin="round"/>
</g>
<defs>
<clipPath id="clip0_2682_8011">
<rect width="94.8183" height="103.2" fill="white"/>
</clipPath>
</defs>
</svg>
