<svg width="96" height="105" viewBox="0 0 96 105" fill="none" xmlns="http://www.w3.org/2000/svg">
<path d="M45.65 104.225C70.8618 104.225 91.3 101.673 91.3 98.5249C91.3 95.3769 70.8618 92.825 45.65 92.825C20.4382 92.825 0 95.3769 0 98.5249C0 101.673 20.4382 104.225 45.65 104.225Z" fill="#212552"/>
<path d="M35.5254 94.4999V92.6499C35.5254 91.8249 34.8504 91.1499 34.0254 91.1499H17.5254C16.7004 91.1499 16.0254 91.8249 16.0254 92.6499V98.1499C16.0254 98.9749 16.7004 99.6499 17.5254 99.6499H28.5004C29.7004 99.6499 30.8504 99.1749 31.7004 98.3249L35.5254 94.4999Z" fill="#92D6E9"/>
<path opacity="0.3" d="M34.0254 91.1499H17.5254C16.7004 91.1499 16.0254 91.8249 16.0254 92.6499V97.7499H32.2754L35.5254 94.4999V92.6499C35.5254 91.8249 34.8504 91.1499 34.0254 91.1499Z" fill="#0A1E2B" stroke="#0A1E2B" stroke-width="1.5" stroke-miterlimit="10" stroke-linecap="round" stroke-linejoin="round"/>
<path d="M55.7754 94.4999V92.6499C55.7754 91.8249 56.4504 91.1499 57.2754 91.1499H73.7754C74.6004 91.1499 75.2754 91.8249 75.2754 92.6499V98.1499C75.2754 98.9749 74.6004 99.6499 73.7754 99.6499H62.8004C61.6004 99.6499 60.4504 99.1749 59.6004 98.3249L55.7754 94.4999Z" fill="#92D6E9"/>
<path opacity="0.3" d="M73.7754 91.1499H57.2754C56.4504 91.1499 55.7754 91.8249 55.7754 92.6499V94.4999L59.0254 97.7499H75.2754V92.6499C75.2754 91.8249 74.6004 91.1499 73.7754 91.1499Z" fill="#0A1E2B" stroke="#0A1E2B" stroke-width="1.5" stroke-miterlimit="10" stroke-linecap="round" stroke-linejoin="round"/>
<path d="M35.5254 94.4999V92.6499C35.5254 91.8249 34.8504 91.1499 34.0254 91.1499H17.5254C16.7004 91.1499 16.0254 91.8249 16.0254 92.6499V98.1499C16.0254 98.9749 16.7004 99.6499 17.5254 99.6499H28.5004C29.7004 99.6499 30.8504 99.1749 31.7004 98.3249L35.5254 94.4999Z" stroke="#212552" stroke-width="1.5" stroke-miterlimit="10" stroke-linecap="round" stroke-linejoin="round"/>
<path d="M55.7754 94.4999V92.6499C55.7754 91.8249 56.4504 91.1499 57.2754 91.1499H73.7754C74.6004 91.1499 75.2754 91.8249 75.2754 92.6499V98.1499C75.2754 98.9749 74.6004 99.6499 73.7754 99.6499H62.8004C61.6004 99.6499 60.4504 99.1749 59.6004 98.3249L55.7754 94.4999Z" stroke="#212552" stroke-width="1.5" stroke-miterlimit="10" stroke-linecap="round" stroke-linejoin="round"/>
<path d="M78.1504 94.525H13.1504C7.62539 94.525 3.15039 90.05 3.15039 84.525V19.525C3.15039 14 7.62539 9.52502 13.1504 9.52502H78.1504C83.6754 9.52502 88.1504 14 88.1504 19.525V84.525C88.1504 90.05 83.6754 94.525 78.1504 94.525Z" fill="#CBEDF9"/>
<path d="M78.1504 9.52502H13.1504C7.62539 9.52502 3.15039 14 3.15039 19.525V25.275C3.15039 19.75 7.62539 15.275 13.1504 15.275H78.1504C83.6754 15.275 88.1504 19.75 88.1504 25.275V19.525C88.1504 14 83.6754 9.52502 78.1504 9.52502Z" fill="#E8F9FF"/>
<path d="M78.1504 88.7749H13.1504C7.62539 88.7749 3.15039 84.2999 3.15039 78.7749V84.5249C3.15039 90.0499 7.62539 94.5249 13.1504 94.5249H78.1504C83.6754 94.5249 88.1504 90.0499 88.1504 84.5249V78.7749C88.1504 84.2999 83.6754 88.7749 78.1504 88.7749Z" fill="#92D6E9"/>
<path opacity="0.23" d="M12.8242 84.2999L21.9242 94.5249H38.9242L49.8992 94.4499L47.7242 78.1749L12.8242 84.2999Z" fill="#0A1E2B" stroke="#0A1E2B" stroke-width="1.5" stroke-miterlimit="10" stroke-linecap="round" stroke-linejoin="round"/>
<path d="M16.1504 85.525C13.9504 85.525 12.1504 83.725 12.1504 81.525V22.525C12.1504 20.325 13.9504 18.525 16.1504 18.525H75.1504C77.3504 18.525 79.1504 20.325 79.1504 22.525V81.525C79.1504 83.725 77.3504 85.525 75.1504 85.525H16.1504Z" fill="#92D6E9"/>
<path d="M79.1504 22.525V81.525C79.1504 83.725 77.3504 85.525 75.1504 85.525H16.1504C13.9504 85.525 12.1504 83.725 12.1504 81.525V22.525C12.1504 20.325 13.9504 18.525 16.1504 18.525H48.0004C49.1254 19.05 49.9004 20.225 49.9004 21.5V24.075H70.5504C71.2004 24.075 71.8004 24.35 72.2254 24.775L77.4004 19.225C78.4504 19.925 79.1504 21.15 79.1504 22.525Z" stroke="#212552" stroke-width="1.5" stroke-miterlimit="10" stroke-linecap="round" stroke-linejoin="round"/>
<path opacity="0.23" d="M68.375 75.1249L82.025 82.7749L84.775 74.2249L77.4 69.1749L68.375 75.1249Z" fill="#0A1E2B" stroke="#0A1E2B" stroke-width="1.5" stroke-miterlimit="10" stroke-linecap="round" stroke-linejoin="round"/>
<path d="M77.4 19.225L72.225 24.775C71.8 24.35 71.2 24.075 70.55 24.075H49.9V21.5C49.9 20.225 49.1 19.05 48 18.525H75.15C75.975 18.525 76.775 18.775 77.4 19.225Z" fill="#53ADBC"/>
<path d="M77.4 19.225L72.225 24.775C71.8 24.35 71.2 24.075 70.55 24.075H49.9V21.5C49.9 20.225 49.1 19.05 48 18.525H75.15C75.975 18.525 76.775 18.775 77.4 19.225Z" stroke="#212552" stroke-width="1.5" stroke-miterlimit="10" stroke-linecap="round" stroke-linejoin="round"/>
<path d="M72.2254 24.75C72.6504 25.175 72.9254 25.775 72.9254 26.425V76.15C72.9254 77.6 71.7504 78.75 70.3254 78.75H49.9004" stroke="#212552" stroke-width="1.5" stroke-miterlimit="10" stroke-linecap="round" stroke-linejoin="round"/>
<path d="M86.1504 67.8249L81.6254 56.0999C81.3754 55.4249 80.6004 55.0999 79.9254 55.3499L68.8504 59.6499L57.7754 63.9249C57.1004 64.1749 56.7754 64.9499 57.0254 65.6249L61.5504 77.3499C61.8004 78.0249 62.5754 78.3499 63.2504 78.0999L74.3254 73.8249L85.4004 69.5499C86.0754 69.2499 86.4254 68.4999 86.1504 67.8249Z" fill="#5F9E71" stroke="#212552" stroke-width="1.5" stroke-miterlimit="10" stroke-linecap="round" stroke-linejoin="round"/>
<path d="M86.1504 67.8249L81.6254 56.0999C81.3754 55.4249 80.6004 55.0999 79.9254 55.3499L68.8504 59.6499L57.7754 63.9249C57.1004 64.1749 56.7754 64.9499 57.0254 65.6249L61.5504 77.3499C61.8004 78.0249 62.5754 78.3499 63.2504 78.0999L74.3254 73.8249L85.4004 69.5499C86.0754 69.2499 86.4254 68.4999 86.1504 67.8249Z" stroke="#212552" stroke-width="1.5" stroke-miterlimit="10" stroke-linecap="round" stroke-linejoin="round"/>
<path d="M82.9758 67.25L81.8008 64.225C81.1008 64.5 80.3258 64.15 80.0508 63.45C79.7758 62.75 80.1258 61.975 80.8258 61.7L79.6508 58.675C79.5008 58.325 79.1008 58.125 78.7508 58.275L69.9008 61.7L69.7008 61.775L60.8508 65.2C60.5008 65.35 60.3008 65.75 60.4508 66.1L61.6258 69.125C62.3258 68.85 63.1008 69.2 63.3758 69.9C63.6508 70.6 63.3008 71.375 62.6008 71.65L63.7758 74.675C63.9258 75.025 64.3258 75.225 64.6758 75.075L73.5258 71.65L73.7258 71.575L82.5758 68.15C82.9258 68.025 83.1008 67.625 82.9758 67.25Z" fill="#90C49E"/>
<path d="M72.7695 69.8243C74.405 69.192 75.194 67.2909 74.5318 65.5781C73.8696 63.8654 72.007 62.9895 70.3715 63.6218C68.736 64.2541 67.947 66.1552 68.6092 67.8679C69.2713 69.5807 71.134 70.4566 72.7695 69.8243Z" fill="white"/>
<path opacity="0.23" d="M66.125 69.175L75 57.275L74.65 45.65L66.125 69.175Z" fill="#0A1E2B" stroke="#0A1E2B" stroke-width="1.5" stroke-miterlimit="10" stroke-linecap="round" stroke-linejoin="round"/>
<path d="M60.6 70.1499H56.625L58.175 75.7499L58.9 77.6249L60.6 70.1499Z" fill="#A78B75"/>
<path d="M55.3755 78.7749H47.0505C45.5005 78.7749 44.5505 77.4999 44.9255 76.0499L46.1505 71.1499C46.3505 70.2999 47.3755 69.6749 48.4255 69.6749H54.0505C55.1005 69.6749 56.1005 70.2999 56.3255 71.1499L57.5505 76.0499C57.8755 77.4749 56.9255 78.7749 55.3755 78.7749Z" fill="#FFE07D"/>
<path d="M57.5246 76.0499L56.2996 71.1499C56.0996 70.2999 55.0746 69.6749 54.0246 69.6749H48.3996C47.3496 69.6749 46.3496 70.2999 46.1246 71.1499L46.0996 71.2749C46.3246 71.2249 46.5496 71.1999 46.7746 71.1999H52.3996C53.4496 71.1999 54.4496 71.8249 54.6746 72.6749L55.8996 77.5749C55.9996 77.9749 55.9996 78.3749 55.8996 78.7249C57.1246 78.4749 57.8246 77.3249 57.5246 76.0499Z" fill="#FFE8A6"/>
<path d="M55.3755 78.7749H47.0505C45.5005 78.7749 44.5505 77.4999 44.9255 76.0499L46.1505 71.1499C46.3505 70.2999 47.3755 69.6749 48.4255 69.6749H54.0505C55.1005 69.6749 56.1005 70.2999 56.3255 71.1499L57.5505 76.0499C57.8755 77.4749 56.9255 78.7749 55.3755 78.7749Z" stroke="#212552" stroke-width="1.5" stroke-miterlimit="10" stroke-linecap="round" stroke-linejoin="round"/>
<path d="M49.0005 69.6749H40.6755C39.1255 69.6749 38.1755 68.3999 38.5505 66.9499L39.7755 62.0499C39.9755 61.1999 41.0005 60.575 42.0505 60.575H47.6505C48.7005 60.575 49.7005 61.1999 49.9255 62.0499L51.1505 66.9499C51.5005 68.3749 50.5505 69.6749 49.0005 69.6749Z" fill="#FFE07D"/>
<path d="M49.0005 69.6749H40.6755C39.1255 69.6749 38.1755 68.3999 38.5505 66.9499L39.7755 62.0499C39.9755 61.1999 41.0005 60.575 42.0505 60.575H47.6505C48.7005 60.575 49.7005 61.1999 49.9255 62.0499L51.1505 66.9499C51.5005 68.3749 50.5505 69.6749 49.0005 69.6749Z" stroke="#212552" stroke-width="1.5" stroke-miterlimit="10" stroke-linecap="round" stroke-linejoin="round"/>
<path d="M73.8757 44.875L62.1007 40.475C61.4257 40.225 60.6757 40.575 60.4257 41.25L56.2757 52.375L52.1257 63.5C51.8757 64.175 52.2257 64.925 52.9007 65.175L64.6757 69.575C65.3507 69.825 66.1007 69.475 66.3507 68.8L70.5007 57.675L74.6507 46.55C74.9007 45.875 74.5507 45.125 73.8757 44.875Z" fill="#5F9E71" stroke="#212552" stroke-width="1.5" stroke-miterlimit="10" stroke-linecap="round" stroke-linejoin="round"/>
<path d="M71.3258 46.875L68.3008 45.75C68.0508 46.45 67.2508 46.8 66.5508 46.55C65.8508 46.3 65.5008 45.5 65.7508 44.8L62.7258 43.675C62.3508 43.55 61.9508 43.725 61.8258 44.075L58.5008 52.975L58.4258 53.175L55.1008 62.075C54.9758 62.45 55.1508 62.85 55.5008 62.975L58.5258 64.1C58.7758 63.4 59.5758 63.05 60.2758 63.3C60.9758 63.55 61.3258 64.35 61.0758 65.05L64.1008 66.175C64.4758 66.3 64.8758 66.125 65.0008 65.775L68.3258 56.875L68.4008 56.675L71.7258 47.775C71.8758 47.425 71.7008 47.025 71.3258 46.875Z" fill="#90C49E"/>
<path d="M66.4774 56.1741C67.0906 54.5312 66.193 52.6789 64.4725 52.0367C62.752 51.3945 60.8602 52.2057 60.247 53.8486C59.6338 55.4914 60.5314 57.3438 62.2519 57.986C63.9724 58.6282 65.8642 57.8169 66.4774 56.1741Z" fill="white"/>
<path d="M73.8757 44.875L62.1007 40.475C61.4257 40.225 60.6757 40.575 60.4257 41.25L56.2757 52.375L52.1257 63.5C51.8757 64.175 52.2257 64.925 52.9007 65.175L64.6757 69.575C65.3507 69.825 66.1007 69.475 66.3507 68.8L70.5007 57.675L74.6507 46.55C74.9007 45.875 74.5507 45.125 73.8757 44.875Z" stroke="#212552" stroke-width="1.5" stroke-miterlimit="10" stroke-linecap="round" stroke-linejoin="round"/>
<path d="M55.0996 61.2999L50.2246 61.075L51.6496 66.0249L53.3996 68.7749L55.0996 61.2999Z" fill="#A78B75"/>
<path d="M62.6255 69.6749H54.3005C52.7505 69.6749 51.8005 68.3999 52.1755 66.9499L53.4005 62.0499C53.6005 61.1999 54.6255 60.575 55.6755 60.575H61.3005C62.3505 60.575 63.3505 61.1999 63.5755 62.0499L64.8005 66.9499C65.1255 68.3749 64.1755 69.6749 62.6255 69.6749Z" fill="#FFE07D"/>
<path d="M64.7508 66.9499L63.5258 62.0499C63.3258 61.1999 62.3008 60.575 61.2508 60.575H55.6508C54.6008 60.575 53.6008 61.1999 53.3758 62.0499L53.3008 62.3499C53.6008 62.2499 53.9008 62.1749 54.2258 62.1749H59.8508C60.9008 62.1749 61.9008 62.7999 62.1258 63.6499L63.3508 68.5499C63.4258 68.8999 63.4508 69.2249 63.4008 69.5499C64.4758 69.1999 65.0508 68.1249 64.7508 66.9499Z" fill="#FFE8A6"/>
<path d="M62.6255 69.6749H54.3005C52.7505 69.6749 51.8005 68.3999 52.1755 66.9499L53.4005 62.0499C53.6005 61.1999 54.6255 60.575 55.6755 60.575H61.3005C62.3505 60.575 63.3505 61.1999 63.5755 62.0499L64.8005 66.9499C65.1255 68.3749 64.1755 69.6749 62.6255 69.6749Z" stroke="#212552" stroke-width="1.5" stroke-miterlimit="10" stroke-linecap="round" stroke-linejoin="round"/>
<path d="M56.1998 60.575H47.8748C46.3248 60.575 45.3748 59.3 45.7498 57.85L46.9748 52.95C47.1748 52.1 48.1998 51.475 49.2498 51.475H54.8748C55.9248 51.475 56.9248 52.1 57.1498 52.95L58.3748 57.85C58.6748 59.275 57.7498 60.575 56.1998 60.575Z" fill="#FFE07D"/>
<path d="M58.3258 57.85L57.1008 52.95C56.9008 52.1 55.8758 51.475 54.8258 51.475H49.2008C48.1508 51.475 47.1508 52.1 46.9258 52.95V53C47.1758 52.925 47.4508 52.875 47.7258 52.875H53.3508C54.4008 52.875 55.4008 53.5 55.6258 54.35L56.8508 59.25C56.9508 59.675 56.9508 60.1 56.8258 60.475C58.0008 60.175 58.6258 59.075 58.3258 57.85Z" fill="#FFE8A6"/>
<path d="M56.1998 60.575H47.8748C46.3248 60.575 45.3748 59.3 45.7498 57.85L46.9748 52.95C47.1748 52.1 48.1998 51.475 49.2498 51.475H54.8748C55.9248 51.475 56.9248 52.1 57.1498 52.95L58.3748 57.85C58.6748 59.275 57.7498 60.575 56.1998 60.575Z" stroke="#212552" stroke-width="1.5" stroke-miterlimit="10" stroke-linecap="round" stroke-linejoin="round"/>
<path opacity="0.23" d="M75.1496 18.525H34.5996L35.7746 54.925H57.7496L74.6496 45.65L79.1496 28.95V22.525C79.1496 20.3 77.3496 18.525 75.1496 18.525Z" fill="#0A1E2B" stroke="#0A1E2B" stroke-width="1.5" stroke-miterlimit="10" stroke-linecap="round" stroke-linejoin="round"/>
<path d="M69.3755 78.7749H61.0505C59.5005 78.7749 58.5505 77.4999 58.9255 76.0499L60.1505 71.1499C60.3505 70.2999 61.3755 69.6749 62.4255 69.6749H68.0505C69.1005 69.6749 70.1005 70.2999 70.3255 71.1499L71.5505 76.0499C71.8755 77.4749 70.9255 78.7749 69.3755 78.7749Z" fill="#FFE07D"/>
<path d="M71.5004 76.0499L70.2754 71.1499C70.0754 70.2999 69.0504 69.6749 68.0004 69.6749H62.4004C61.3504 69.6749 60.3504 70.2999 60.1254 71.1499L60.0254 71.5749C60.3004 71.4749 60.6004 71.4249 60.9004 71.4249H66.5254C67.5754 71.4249 68.5754 72.0499 68.8004 72.8999L70.0254 77.7999C70.1004 78.0999 70.1254 78.3999 70.0754 78.6749C71.2004 78.3499 71.8004 77.2499 71.5004 76.0499Z" fill="#FFE8A6"/>
<path d="M69.3755 78.7749H61.0505C59.5005 78.7749 58.5505 77.4999 58.9255 76.0499L60.1505 71.1499C60.3505 70.2999 61.3755 69.6749 62.4255 69.6749H68.0505C69.1005 69.6749 70.1005 70.2999 70.3255 71.1499L71.5505 76.0499C71.8755 77.4749 70.9255 78.7749 69.3755 78.7749Z" stroke="#212552" stroke-width="1.5" stroke-miterlimit="10" stroke-linecap="round" stroke-linejoin="round"/>
<path d="M15.375 82.275V21.725C15.375 19.45 16.65 17.375 18.225 17.05L38.45 13C40.475 12.6 42.125 14.4 42.125 17V87C42.125 89.625 40.45 91.4 38.45 91L18.225 86.95C16.65 86.65 15.375 84.5499 15.375 82.275Z" fill="#92D6E9"/>
<path d="M15.375 82.275V21.725C15.375 19.45 16.65 17.375 18.225 17.05L38.45 13C40.475 12.6 42.125 14.4 42.125 17V87C42.125 89.625 40.45 91.4 38.45 91L18.225 86.95C16.65 86.65 15.375 84.55 15.375 82.275Z" stroke="#212552" stroke-width="1.5" stroke-miterlimit="10" stroke-linecap="round" stroke-linejoin="round"/>
<path d="M12.1504 81.525V22.525C12.1504 20.325 13.3754 18.225 14.9254 17.875L35.1504 13.15C37.2004 12.675 38.9254 14.4 38.9254 17.025V87.025C38.9254 89.65 37.2254 91.375 35.1504 90.9L14.9504 86.175C13.3754 85.8 12.1504 83.725 12.1504 81.525Z" fill="#CBEDF9"/>
<path d="M35.1508 86.8749L14.9508 82.1499C13.4008 81.7749 12.1758 79.6999 12.1758 77.4999V81.4999C12.1758 83.6999 13.4008 85.7999 14.9508 86.1499L35.1508 90.8749C37.2008 91.3499 38.9258 89.6249 38.9258 86.9999V82.9999C38.9258 85.6499 37.2008 87.3749 35.1508 86.8749Z" fill="#92D6E9"/>
<path d="M35.1508 13.15L14.9508 17.875C13.4008 18.25 12.1758 20.325 12.1758 22.525V25.525C12.1758 23.325 13.4008 21.225 14.9508 20.875L35.1508 16.15C37.2008 15.675 38.9258 17.4 38.9258 20.025V17.025C38.9258 14.4 37.2008 12.675 35.1508 13.15Z" fill="#E8F9FF"/>
<path d="M35.7746 34.2499C36.4235 34.2499 36.9496 33.0635 36.9496 31.5999C36.9496 30.1364 36.4235 28.95 35.7746 28.95C35.1257 28.95 34.5996 30.1364 34.5996 31.5999C34.5996 33.0635 35.1257 34.2499 35.7746 34.2499Z" fill="#212552"/>
<path d="M12.1504 81.525V22.525C12.1504 20.325 13.3754 18.225 14.9254 17.875L35.1504 13.15C37.2004 12.675 38.9254 14.4 38.9254 17.025V87.025C38.9254 89.65 37.2254 91.375 35.1504 90.9L14.9504 86.175C13.3754 85.8 12.1504 83.725 12.1504 81.525Z" stroke="#212552" stroke-width="1.5" stroke-miterlimit="10" stroke-linecap="round" stroke-linejoin="round"/>
<path d="M24.5492 67.45C28.4014 67.45 31.5242 61.3387 31.5242 53.8C31.5242 46.2613 28.4014 40.15 24.5492 40.15C20.697 40.15 17.5742 46.2613 17.5742 53.8C17.5742 61.3387 20.697 67.45 24.5492 67.45Z" fill="#9FBDCA" stroke="#9FBDCA" stroke-width="1.5" stroke-miterlimit="10" stroke-linecap="round" stroke-linejoin="round"/>
<path d="M24.3004 68.6749C25.4878 68.6749 26.4504 67.8019 26.4504 66.7249C26.4504 65.6479 25.4878 64.7749 24.3004 64.7749C23.113 64.7749 22.1504 65.6479 22.1504 66.7249C22.1504 67.8019 23.113 68.6749 24.3004 68.6749Z" fill="#9FBDCA" stroke="#9FBDCA" stroke-width="1.5" stroke-miterlimit="10" stroke-linecap="round" stroke-linejoin="round"/>
<path d="M24.8504 66.025C28.9649 66.025 32.3004 59.813 32.3004 52.15C32.3004 44.4871 28.9649 38.275 24.8504 38.275C20.7359 38.275 17.4004 44.4871 17.4004 52.15C17.4004 59.813 20.7359 66.025 24.8504 66.025Z" fill="#CBEDF9"/>
<path d="M24.2992 63.65C27.5301 63.65 30.1492 58.5013 30.1492 52.15C30.1492 45.7987 27.5301 40.65 24.2992 40.65C21.0684 40.65 18.4492 45.7987 18.4492 52.15C18.4492 58.5013 21.0684 63.65 24.2992 63.65Z" fill="#92D6E9"/>
<g opacity="0.23">
<path d="M17.8254 52.1499L28.7754 52.5749L25.5254 65.9749L21.9254 64.9249L17.4004 52.1499" fill="#0A1E2B"/>
<path d="M17.8254 52.1499L28.7754 52.5749L25.5254 65.9749L21.9254 64.9249L17.4004 52.1499" stroke="#0A1E2B" stroke-width="1.5" stroke-miterlimit="10" stroke-linecap="round" stroke-linejoin="round"/>
</g>
<path d="M24.8504 66.025C28.9649 66.025 32.3004 59.813 32.3004 52.15C32.3004 44.4871 28.9649 38.275 24.8504 38.275C20.7359 38.275 17.4004 44.4871 17.4004 52.15C17.4004 59.813 20.7359 66.025 24.8504 66.025Z" stroke="#212552" stroke-width="1.5" stroke-miterlimit="10" stroke-linecap="round" stroke-linejoin="round"/>
<path opacity="0.23" d="M12.1504 42.65C11.0504 42.65 10.1504 41.75 10.1504 40.65V34.65C10.1504 33.55 11.0504 32.65 12.1504 32.65C13.2504 32.65 14.1504 33.55 14.1504 34.65V40.65C14.1504 41.75 13.2504 42.65 12.1504 42.65Z" fill="#0A1E2B" stroke="#0A1E2B" stroke-width="1.5" stroke-miterlimit="10" stroke-linecap="round" stroke-linejoin="round"/>
<path opacity="0.23" d="M12.1504 75.2749C11.0504 75.2749 10.1504 74.3749 10.1504 73.2749V67.2749C10.1504 66.1749 11.0504 65.2749 12.1504 65.2749C13.2504 65.2749 14.1504 66.1749 14.1504 67.2749V73.2749C14.1504 74.3749 13.2504 75.2749 12.1504 75.2749Z" fill="#0A1E2B" stroke="#0A1E2B" stroke-width="1.5" stroke-miterlimit="10" stroke-linecap="round" stroke-linejoin="round"/>
<path d="M12.1504 40.65C11.0504 40.65 10.1504 39.75 10.1504 38.65V32.65C10.1504 31.55 11.0504 30.65 12.1504 30.65C13.2504 30.65 14.1504 31.55 14.1504 32.65V38.65C14.1504 39.75 13.2504 40.65 12.1504 40.65Z" fill="#92D6E9"/>
<path d="M12.1504 73.3999C11.0504 73.3999 10.1504 72.4999 10.1504 71.3999V65.3999C10.1504 64.2999 11.0504 63.3999 12.1504 63.3999C13.2504 63.3999 14.1504 64.2999 14.1504 65.3999V71.3999C14.1504 72.4999 13.2504 73.3999 12.1504 73.3999Z" fill="#92D6E9"/>
<path d="M12.1504 40.65C11.0504 40.65 10.1504 39.75 10.1504 38.65V32.65C10.1504 31.55 11.0504 30.65 12.1504 30.65C13.2504 30.65 14.1504 31.55 14.1504 32.65V38.65C14.1504 39.75 13.2504 40.65 12.1504 40.65Z" stroke="#212552" stroke-width="1.5" stroke-miterlimit="10" stroke-linecap="round" stroke-linejoin="round"/>
<path d="M12.1504 73.3999C11.0504 73.3999 10.1504 72.4999 10.1504 71.3999V65.3999C10.1504 64.2999 11.0504 63.3999 12.1504 63.3999C13.2504 63.3999 14.1504 64.2999 14.1504 65.3999V71.3999C14.1504 72.4999 13.2504 73.3999 12.1504 73.3999Z" stroke="#212552" stroke-width="1.5" stroke-miterlimit="10" stroke-linecap="round" stroke-linejoin="round"/>
<path d="M95.1496 13.975L90.0996 13.275" stroke="#212552" stroke-width="1.5" stroke-miterlimit="10" stroke-linecap="round" stroke-linejoin="round"/>
<path d="M83.125 6.05L82.375 1" stroke="#212552" stroke-width="1.5" stroke-miterlimit="10" stroke-linecap="round" stroke-linejoin="round"/>
<path d="M88.125 7.87412L91.7491 4.25" stroke="#212552" stroke-width="1.5" stroke-miterlimit="10" stroke-linecap="round" stroke-linejoin="round"/>
<path d="M23.4992 47.025H19.5742V57.3H23.4992C25.2242 57.3 26.5992 55 26.5992 52.175C26.5992 49.35 25.1992 47.025 23.4992 47.025Z" fill="#3CA4B5"/>
<path d="M23.4992 47.025H19.5742V57.3H23.4992C25.2242 57.3 26.5992 55 26.5992 52.175C26.5992 49.35 25.1992 47.025 23.4992 47.025Z" stroke="#212552" stroke-width="1.5" stroke-miterlimit="10" stroke-linecap="round" stroke-linejoin="round"/>
<path d="M23.5004 57.275C25.2125 57.275 26.6004 54.9805 26.6004 52.15C26.6004 49.3196 25.2125 47.025 23.5004 47.025C21.7883 47.025 20.4004 49.3196 20.4004 52.15C20.4004 54.9805 21.7883 57.275 23.5004 57.275Z" stroke="#212552" stroke-width="2.5" stroke-miterlimit="10" stroke-linecap="round" stroke-linejoin="round"/>
<path d="M28.4004 52.1499H23.2754" stroke="#212552" stroke-width="2.25" stroke-miterlimit="10" stroke-linecap="round" stroke-linejoin="round"/>
<path d="M20.375 47.024H23.4992V43L20.375 47.024Z" stroke="#212552" stroke-width="1.5" stroke-miterlimit="10" stroke-linecap="round" stroke-linejoin="round"/>
<path d="M20.375 47.024H23.4992V43L20.375 47.024Z" fill="#212552"/>
<path d="M20.375 57.2749H23.4992V61.2989L20.375 57.2749Z" fill="#212552"/>
<path d="M20.375 57.2749H23.4992V61.2989L20.375 57.2749Z" stroke="#212552" stroke-width="1.5" stroke-miterlimit="10" stroke-linecap="round" stroke-linejoin="round"/>
<path d="M19.5746 57.275C21.2867 57.275 22.6746 54.9805 22.6746 52.15C22.6746 49.3196 21.2867 47.025 19.5746 47.025C17.8625 47.025 16.4746 49.3196 16.4746 52.15C16.4746 54.9805 17.8625 57.275 19.5746 57.275Z" fill="#FFEA9E"/>
<path d="M19.3258 54.6499C20.168 54.6499 20.8508 53.5306 20.8508 52.1499C20.8508 50.7692 20.168 49.6499 19.3258 49.6499C18.4835 49.6499 17.8008 50.7692 17.8008 52.1499C17.8008 53.5306 18.4835 54.6499 19.3258 54.6499Z" fill="#FFE07D"/>
<path d="M19.5746 57.275C21.2867 57.275 22.6746 54.9805 22.6746 52.15C22.6746 49.3196 21.2867 47.025 19.5746 47.025C17.8625 47.025 16.4746 49.3196 16.4746 52.15C16.4746 54.9805 17.8625 57.275 19.5746 57.275Z" stroke="#212552" stroke-width="1.5" stroke-miterlimit="10" stroke-linecap="round" stroke-linejoin="round"/>
<path d="M46.9754 85.7999L41.9004 86.2999V17.725L46.9754 18.225C48.6004 18.375 49.9004 19.85 49.9004 21.475V82.5249C49.9004 84.1749 48.6004 85.6499 46.9754 85.7999Z" fill="#CBEDF9"/>
<path opacity="0.23" d="M50.0496 43.8V36.65H44.4746V44.225H44.4996C44.4996 45.775 45.7496 47.025 47.2996 47.025C48.8496 47.025 50.0996 45.775 50.0996 44.225C50.0996 44.075 50.0746 43.95 50.0496 43.8Z" fill="#0A1E2B" stroke="#0A1E2B" stroke-width="1.5" stroke-miterlimit="10" stroke-linecap="round" stroke-linejoin="round"/>
<path d="M49.9004 21.475V82.525C49.9004 83.8 49.1254 84.975 48.0504 85.5C47.7504 85.65 47.4004 85.75 47.0504 85.775L42.1504 86.275V17.725L47.0504 18.225C47.4004 18.25 47.7254 18.35 48.0504 18.5C49.1254 19.05 49.9004 20.2 49.9004 21.475Z" stroke="#212552" stroke-width="1.5" stroke-miterlimit="10" stroke-linecap="round" stroke-linejoin="round"/>
<path d="M71.9746 78.1749L78.0246 84.2999" stroke="#212552" stroke-width="1.5" stroke-miterlimit="10" stroke-linecap="round" stroke-linejoin="round"/>
<path d="M47.3742 33.35C45.8242 33.35 44.5742 34.6 44.5742 36.15C44.5742 37.7 45.8242 38.95 47.3742 38.95H50.0992V33.375H47.3742V33.35Z" fill="#92D6E9"/>
<path d="M47.3742 33.35C45.8242 33.35 44.5742 34.6 44.5742 36.15C44.5742 37.7 45.8242 38.95 47.3742 38.95H50.0992V33.375H47.3742V33.35Z" stroke="#212552" stroke-width="1.5" stroke-miterlimit="10" stroke-linecap="round" stroke-linejoin="round"/>
<path d="M50.1008 38.95C51.6472 38.95 52.9008 37.6964 52.9008 36.15C52.9008 34.6036 51.6472 33.35 50.1008 33.35C48.5544 33.35 47.3008 34.6036 47.3008 36.15C47.3008 37.6964 48.5544 38.95 50.1008 38.95Z" fill="#CBEDF9"/>
<path d="M50.1008 38.95C51.6472 38.95 52.9008 37.6964 52.9008 36.15C52.9008 34.6036 51.6472 33.35 50.1008 33.35C48.5544 33.35 47.3008 34.6036 47.3008 36.15C47.3008 37.6964 48.5544 38.95 50.1008 38.95Z" stroke="#212552" stroke-width="1.5" stroke-miterlimit="10" stroke-linecap="round" stroke-linejoin="round"/>
<path d="M50.1008 38.95C51.6472 38.95 52.9008 37.6964 52.9008 36.15C52.9008 34.6036 51.6472 33.35 50.1008 33.35C48.5544 33.35 47.3008 34.6036 47.3008 36.15C47.3008 37.6964 48.5544 38.95 50.1008 38.95Z" stroke="#212552" stroke-width="1.5" stroke-miterlimit="10" stroke-linecap="round" stroke-linejoin="round"/>
<path opacity="0.23" d="M50.0496 75.7249V68.575H44.4746V76.1499H44.4996C44.4996 77.6999 45.7496 78.9499 47.2996 78.9499C48.8496 78.9499 50.0996 77.6999 50.0996 76.1499C50.0996 75.9999 50.0746 75.8499 50.0496 75.7249Z" fill="#0A1E2B" stroke="#0A1E2B" stroke-width="1.5" stroke-miterlimit="10" stroke-linecap="round" stroke-linejoin="round"/>
<path d="M47.3742 65.2749C45.8242 65.2749 44.5742 66.5249 44.5742 68.0749C44.5742 69.6249 45.8242 70.8749 47.3742 70.8749H50.0992V65.2999H47.3742V65.2749Z" fill="#92D6E9"/>
<path d="M47.3742 65.2749C45.8242 65.2749 44.5742 66.5249 44.5742 68.0749C44.5742 69.6249 45.8242 70.8749 47.3742 70.8749H50.0992V65.2999H47.3742V65.2749Z" stroke="#212552" stroke-width="1.5" stroke-miterlimit="10" stroke-linecap="round" stroke-linejoin="round"/>
<path d="M50.1008 70.8499C51.6472 70.8499 52.9008 69.5963 52.9008 68.0499C52.9008 66.5035 51.6472 65.2499 50.1008 65.2499C48.5544 65.2499 47.3008 66.5035 47.3008 68.0499C47.3008 69.5963 48.5544 70.8499 50.1008 70.8499Z" fill="#CBEDF9"/>
<path d="M50.1008 70.8499C51.6472 70.8499 52.9008 69.5963 52.9008 68.0499C52.9008 66.5035 51.6472 65.2499 50.1008 65.2499C48.5544 65.2499 47.3008 66.5035 47.3008 68.0499C47.3008 69.5963 48.5544 70.8499 50.1008 70.8499Z" stroke="#212552" stroke-width="1.5" stroke-miterlimit="10" stroke-linecap="round" stroke-linejoin="round"/>
<path d="M33.4004 70.225C32.8504 70.225 32.4004 69.775 32.4004 69.225V33.725C32.4004 33.175 32.8504 32.725 33.4004 32.725H35.4504V30.475H33.1504C31.5004 30.475 30.1504 31.825 30.1504 33.475V69.475C30.1504 71.125 31.5004 72.475 33.1504 72.475H35.4504V70.225H33.4004Z" fill="#92D6E9"/>
<path d="M35.7746 73.8249C36.4235 73.8249 36.9496 72.6384 36.9496 71.1749C36.9496 69.7113 36.4235 68.5249 35.7746 68.5249C35.1257 68.5249 34.5996 69.7113 34.5996 71.1749C34.5996 72.6384 35.1257 73.8249 35.7746 73.8249Z" fill="#212552"/>
<path d="M33.4004 70.225C32.8504 70.225 32.4004 69.775 32.4004 69.225V33.725C32.4004 33.175 32.8504 32.725 33.4004 32.725H35.4504V30.475H33.1504C31.5004 30.475 30.1504 31.825 30.1504 33.475V69.475C30.1504 71.125 31.5004 72.475 33.1504 72.475H35.4504V70.225H33.4004Z" stroke="#212552" stroke-width="1.5" stroke-miterlimit="10" stroke-linecap="round" stroke-linejoin="round"/>
<path d="M78.1504 94.525H13.1504C7.62539 94.525 3.15039 90.05 3.15039 84.525V19.525C3.15039 14 7.62539 9.52502 13.1504 9.52502H78.1504C83.6754 9.52502 88.1504 14 88.1504 19.525V84.525C88.1504 90.05 83.6754 94.525 78.1504 94.525Z" stroke="#212552" stroke-width="1.5" stroke-miterlimit="10" stroke-linecap="round" stroke-linejoin="round"/>
<path opacity="0.23" d="M35.5254 33.775L35.7754 78.175" stroke="#0A1E2B" stroke-width="2" stroke-miterlimit="10" stroke-linecap="round" stroke-linejoin="round"/>
<path d="M35.3008 13.0749L39.1748 12.95" stroke="#212552" stroke-width="1.5" stroke-miterlimit="10" stroke-linecap="round" stroke-linejoin="round"/>
<path d="M35.6504 90.95L39.2245 91.0499" stroke="#212552" stroke-width="1.5" stroke-miterlimit="10" stroke-linecap="round" stroke-linejoin="round"/>
</svg>
