<svg width="96" height="105" viewBox="0 0 96 105" fill="none" xmlns="http://www.w3.org/2000/svg">
<path d="M45.65 104.225C70.8618 104.225 91.3 101.673 91.3 98.5251C91.3 95.377 70.8618 92.8251 45.65 92.8251C20.4382 92.8251 0 95.377 0 98.5251C0 101.673 20.4382 104.225 45.65 104.225Z" fill="#212552"/>
<path d="M35.5254 94.4999V92.6499C35.5254 91.8249 34.8504 91.1499 34.0254 91.1499H17.5254C16.7004 91.1499 16.0254 91.8249 16.0254 92.6499V98.1499C16.0254 98.9749 16.7004 99.6499 17.5254 99.6499H28.5004C29.7004 99.6499 30.8504 99.1749 31.7004 98.3249L35.5254 94.4999Z" fill="#92D6E9"/>
<path opacity="0.3" d="M34.0254 91.1499H17.5254C16.7004 91.1499 16.0254 91.8249 16.0254 92.6499V97.7499H32.2754L35.5254 94.4999V92.6499C35.5254 91.8249 34.8504 91.1499 34.0254 91.1499Z" fill="#0A1E2B" stroke="#0A1E2B" stroke-width="1.5" stroke-miterlimit="10" stroke-linecap="round" stroke-linejoin="round"/>
<path d="M55.7754 94.4999V92.6499C55.7754 91.8249 56.4504 91.1499 57.2754 91.1499H73.7754C74.6004 91.1499 75.2754 91.8249 75.2754 92.6499V98.1499C75.2754 98.9749 74.6004 99.6499 73.7754 99.6499H62.8004C61.6004 99.6499 60.4504 99.1749 59.6004 98.3249L55.7754 94.4999Z" fill="#92D6E9"/>
<path opacity="0.3" d="M73.7754 91.1499H57.2754C56.4504 91.1499 55.7754 91.8249 55.7754 92.6499V94.4999L59.0254 97.7499H75.2754V92.6499C75.2754 91.8249 74.6004 91.1499 73.7754 91.1499Z" fill="#0A1E2B" stroke="#0A1E2B" stroke-width="1.5" stroke-miterlimit="10" stroke-linecap="round" stroke-linejoin="round"/>
<path d="M35.5254 94.4999V92.6499C35.5254 91.8249 34.8504 91.1499 34.0254 91.1499H17.5254C16.7004 91.1499 16.0254 91.8249 16.0254 92.6499V98.1499C16.0254 98.9749 16.7004 99.6499 17.5254 99.6499H28.5004C29.7004 99.6499 30.8504 99.1749 31.7004 98.3249L35.5254 94.4999Z" stroke="#212552" stroke-width="1.5" stroke-miterlimit="10" stroke-linecap="round" stroke-linejoin="round"/>
<path d="M55.7754 94.4999V92.6499C55.7754 91.8249 56.4504 91.1499 57.2754 91.1499H73.7754C74.6004 91.1499 75.2754 91.8249 75.2754 92.6499V98.1499C75.2754 98.9749 74.6004 99.6499 73.7754 99.6499H62.8004C61.6004 99.6499 60.4504 99.1749 59.6004 98.3249L55.7754 94.4999Z" stroke="#212552" stroke-width="1.5" stroke-miterlimit="10" stroke-linecap="round" stroke-linejoin="round"/>
<path d="M78.1504 94.5249H13.1504C7.62539 94.5249 3.15039 90.0499 3.15039 84.5249V19.5249C3.15039 13.9999 7.62539 9.5249 13.1504 9.5249H78.1504C83.6754 9.5249 88.1504 13.9999 88.1504 19.5249V84.5249C88.1504 90.0499 83.6754 94.5249 78.1504 94.5249Z" fill="#CBEDF9"/>
<path d="M78.1504 9.5249H13.1504C7.62539 9.5249 3.15039 13.9999 3.15039 19.5249V25.2749C3.15039 19.7499 7.62539 15.2749 13.1504 15.2749H78.1504C83.6754 15.2749 88.1504 19.7499 88.1504 25.2749V19.5249C88.1504 13.9999 83.6754 9.5249 78.1504 9.5249Z" fill="#E8F9FF"/>
<path opacity="0.23" d="M62.8262 9.42493H69.2262L64.9012 18.5249L62.8262 9.42493Z" fill="#0A1E2B" stroke="#0A1E2B" stroke-width="1.5" stroke-miterlimit="10" stroke-linecap="round" stroke-linejoin="round"/>
<path d="M78.1504 88.7749H13.1504C7.62539 88.7749 3.15039 84.2999 3.15039 78.7749V84.5249C3.15039 90.0499 7.62539 94.5249 13.1504 94.5249H78.1504C83.6754 94.5249 88.1504 90.0499 88.1504 84.5249V78.7749C88.1504 84.2999 83.6754 88.7749 78.1504 88.7749Z" fill="#92D6E9"/>
<path d="M78.1504 94.5249H13.1504C7.62539 94.5249 3.15039 90.0499 3.15039 84.5249V19.5249C3.15039 13.9999 7.62539 9.5249 13.1504 9.5249H78.1504C83.6754 9.5249 88.1504 13.9999 88.1504 19.5249V84.5249C88.1504 90.0499 83.6754 94.5249 78.1504 94.5249Z" stroke="#212552" stroke-width="1.5" stroke-miterlimit="10" stroke-linecap="round" stroke-linejoin="round"/>
<path d="M75.1504 18.5249H16.1504C13.9504 18.5249 12.1504 20.3249 12.1504 22.5249V24.5249C12.1504 22.3249 13.9504 21.2749 16.1504 21.2749H75.1504C77.3504 21.2749 79.1504 22.3249 79.1504 24.5249V22.5249C79.1504 20.2999 77.3504 18.5249 75.1504 18.5249Z" fill="#E8F9FF"/>
<path d="M75.1504 82.2749H16.1504C13.9504 82.2749 12.1504 80.4749 12.1504 78.2749V81.5249C12.1504 83.7249 13.9504 85.5249 16.1504 85.5249H75.1504C77.3504 85.5249 79.1504 83.7249 79.1504 81.5249V78.2749C79.1504 80.4749 77.3504 82.2749 75.1504 82.2749Z" fill="#92D6E9"/>
<path d="M16.1504 85.5249C13.9504 85.5249 12.1504 83.7249 12.1504 81.5249V22.5249C12.1504 20.3249 13.9504 18.5249 16.1504 18.5249H75.1504C77.3504 18.5249 79.1504 20.3249 79.1504 22.5249V81.5249C79.1504 83.7249 77.3504 85.5249 75.1504 85.5249H16.1504Z" stroke="#212552" stroke-width="1.5" stroke-miterlimit="10" stroke-linecap="round" stroke-linejoin="round"/>
<path opacity="0.23" d="M71.9746 75.7999H71.4746C70.9246 75.7999 70.4746 75.3499 70.4746 74.7999V36.7999C70.4746 36.2499 70.9246 35.7999 71.4746 35.7999H71.9746C72.5246 35.7999 72.9746 36.2499 72.9746 36.7999V74.7999C72.9746 75.3499 72.5246 75.7999 71.9746 75.7999Z" fill="#0A1E2B" stroke="#0A1E2B" stroke-width="1.5" stroke-miterlimit="10" stroke-linecap="round" stroke-linejoin="round"/>
<path d="M71.9746 70.7999H71.4746C70.9246 70.7999 70.4746 70.3499 70.4746 69.7999V31.7999C70.4746 31.2499 70.9246 30.7999 71.4746 30.7999H71.9746C72.5246 30.7999 72.9746 31.2499 72.9746 31.7999V69.7999C72.9746 70.3499 72.5246 70.7999 71.9746 70.7999Z" fill="#92D6E9"/>
<path d="M71.9746 70.7999H71.4746C70.9246 70.7999 70.4746 70.3499 70.4746 69.7999V31.7999C70.4746 31.2499 70.9246 30.7999 71.4746 30.7999H71.9746C72.5246 30.7999 72.9746 31.2499 72.9746 31.7999V69.7999C72.9746 70.3499 72.5246 70.7999 71.9746 70.7999Z" stroke="#212552" stroke-width="1.5" stroke-miterlimit="10" stroke-linecap="round" stroke-linejoin="round"/>
<path opacity="0.23" d="M45.6504 70.2749C54.625 70.2749 61.9004 62.9995 61.9004 54.0249C61.9004 45.0503 54.625 37.7749 45.6504 37.7749C36.6758 37.7749 29.4004 45.0503 29.4004 54.0249C29.4004 62.9995 36.6758 70.2749 45.6504 70.2749Z" fill="#0A1E2B" stroke="#0A1E2B" stroke-width="1.5" stroke-miterlimit="10" stroke-linecap="round" stroke-linejoin="round"/>
<path d="M45.6504 68.2749C54.625 68.2749 61.9004 60.9995 61.9004 52.0249C61.9004 43.0503 54.625 35.7749 45.6504 35.7749C36.6758 35.7749 29.4004 43.0503 29.4004 52.0249C29.4004 60.9995 36.6758 68.2749 45.6504 68.2749Z" fill="#CBEDF9"/>
<path d="M45.6504 68.2749C54.625 68.2749 61.9004 60.9995 61.9004 52.0249C61.9004 43.0503 54.625 35.7749 45.6504 35.7749C36.6758 35.7749 29.4004 43.0503 29.4004 52.0249C29.4004 60.9995 36.6758 68.2749 45.6504 68.2749Z" stroke="#212552" stroke-width="1.5" stroke-miterlimit="10" stroke-linecap="round" stroke-linejoin="round"/>
<path d="M45.6504 65.5249C53.1062 65.5249 59.1504 59.4807 59.1504 52.0249C59.1504 44.5691 53.1062 38.5249 45.6504 38.5249C38.1945 38.5249 32.1504 44.5691 32.1504 52.0249C32.1504 59.4807 38.1945 65.5249 45.6504 65.5249Z" fill="#92D6E9"/>
<path d="M45.6504 41.7749V62.2749" stroke="#212552" stroke-width="2.5" stroke-miterlimit="10" stroke-linecap="round" stroke-linejoin="round"/>
<path d="M55.9004 52.0249H35.4004" stroke="#212552" stroke-width="2.5" stroke-miterlimit="10" stroke-linecap="round" stroke-linejoin="round"/>
<path d="M52.9004 44.7749L38.4004 59.2749" stroke="#212552" stroke-width="2.5" stroke-miterlimit="10" stroke-linecap="round" stroke-linejoin="round"/>
<path d="M52.9004 59.2749L38.4004 44.7749" stroke="#212552" stroke-width="2.5" stroke-miterlimit="10" stroke-linecap="round" stroke-linejoin="round"/>
<path opacity="0.3" d="M45.6504 63.95C42.2004 63.95 39.4004 61.15 39.4004 57.7V51.45H51.9004V57.7C51.9004 61.15 49.1004 63.95 45.6504 63.95Z" fill="#0A1E2B" stroke="#0A1E2B" stroke-width="1.5" stroke-miterlimit="10" stroke-linecap="round" stroke-linejoin="round"/>
<path opacity="0.23" d="M12.1504 42.6499C11.0504 42.6499 10.1504 41.7499 10.1504 40.6499V34.6499C10.1504 33.5499 11.0504 32.6499 12.1504 32.6499C13.2504 32.6499 14.1504 33.5499 14.1504 34.6499V40.6499C14.1504 41.7499 13.2504 42.6499 12.1504 42.6499Z" fill="#0A1E2B" stroke="#0A1E2B" stroke-width="1.5" stroke-miterlimit="10" stroke-linecap="round" stroke-linejoin="round"/>
<path opacity="0.23" d="M12.1504 75.2749C11.0504 75.2749 10.1504 74.3749 10.1504 73.2749V67.2749C10.1504 66.1749 11.0504 65.2749 12.1504 65.2749C13.2504 65.2749 14.1504 66.1749 14.1504 67.2749V73.2749C14.1504 74.3749 13.2504 75.2749 12.1504 75.2749Z" fill="#0A1E2B" stroke="#0A1E2B" stroke-width="1.5" stroke-miterlimit="10" stroke-linecap="round" stroke-linejoin="round"/>
<path d="M12.1504 40.6499C11.0504 40.6499 10.1504 39.7499 10.1504 38.6499V32.6499C10.1504 31.5499 11.0504 30.6499 12.1504 30.6499C13.2504 30.6499 14.1504 31.5499 14.1504 32.6499V38.6499C14.1504 39.7499 13.2504 40.6499 12.1504 40.6499Z" fill="#92D6E9"/>
<path d="M12.1504 73.3999C11.0504 73.3999 10.1504 72.4999 10.1504 71.3999V65.3999C10.1504 64.2999 11.0504 63.3999 12.1504 63.3999C13.2504 63.3999 14.1504 64.2999 14.1504 65.3999V71.3999C14.1504 72.4999 13.2504 73.3999 12.1504 73.3999Z" fill="#92D6E9"/>
<path d="M12.1504 40.6499C11.0504 40.6499 10.1504 39.7499 10.1504 38.6499V32.6499C10.1504 31.5499 11.0504 30.6499 12.1504 30.6499C13.2504 30.6499 14.1504 31.5499 14.1504 32.6499V38.6499C14.1504 39.7499 13.2504 40.6499 12.1504 40.6499Z" stroke="#212552" stroke-width="1.5" stroke-miterlimit="10" stroke-linecap="round" stroke-linejoin="round"/>
<path d="M12.1504 73.3999C11.0504 73.3999 10.1504 72.4999 10.1504 71.3999V65.3999C10.1504 64.2999 11.0504 63.3999 12.1504 63.3999C13.2504 63.3999 14.1504 64.2999 14.1504 65.3999V71.3999C14.1504 72.4999 13.2504 73.3999 12.1504 73.3999Z" stroke="#212552" stroke-width="1.5" stroke-miterlimit="10" stroke-linecap="round" stroke-linejoin="round"/>
<path d="M45.6504 58.2749C49.1022 58.2749 51.9004 55.4767 51.9004 52.0249C51.9004 48.5731 49.1022 45.7749 45.6504 45.7749C42.1986 45.7749 39.4004 48.5731 39.4004 52.0249C39.4004 55.4767 42.1986 58.2749 45.6504 58.2749Z" fill="#FFEA9E"/>
<path d="M45.6496 54.8249C47.196 54.8249 48.4496 53.5713 48.4496 52.0249C48.4496 50.4785 47.196 49.2249 45.6496 49.2249C44.1032 49.2249 42.8496 50.4785 42.8496 52.0249C42.8496 53.5713 44.1032 54.8249 45.6496 54.8249Z" fill="#EDC75D"/>
<path d="M45.6504 57.7749C48.826 57.7749 51.4004 55.2005 51.4004 52.0249C51.4004 48.8493 48.826 46.2749 45.6504 46.2749C42.4748 46.2749 39.9004 48.8493 39.9004 52.0249C39.9004 55.2005 42.4748 57.7749 45.6504 57.7749Z" stroke="#212552" stroke-width="2" stroke-miterlimit="10" stroke-linecap="round" stroke-linejoin="round"/>
<path d="M65.4004 18.5249H48.2754V5.47492C48.2754 4.47492 49.0754 3.67493 50.0754 3.67493H63.5754C64.5754 3.67493 65.3754 4.47492 65.3754 5.47492L65.4004 18.5249Z" fill="#5F9E71" stroke="#212552" stroke-width="1.5" stroke-miterlimit="10" stroke-linecap="round" stroke-linejoin="round"/>
<path d="M62.0246 6.7749H58.3746C58.3746 7.6249 57.6996 8.2999 56.8496 8.2999C55.9996 8.2999 55.3246 7.6249 55.3246 6.7749H51.6496C51.2246 6.7749 50.8496 7.12491 50.8496 7.57491V18.5249H62.7996V7.57491C62.8246 7.12491 62.4496 6.7749 62.0246 6.7749Z" fill="#90C49E"/>
<path d="M56.8496 19.4249C58.9207 19.4249 60.5996 17.8243 60.5996 15.8499C60.5996 13.8755 58.9207 12.2749 56.8496 12.2749C54.7785 12.2749 53.0996 13.8755 53.0996 15.8499C53.0996 17.8243 54.7785 19.4249 56.8496 19.4249Z" fill="white"/>
<path d="M65.4004 18.5249H48.2754V5.47492C48.2754 4.47492 49.0754 3.67493 50.0754 3.67493H63.5754C64.5754 3.67493 65.3754 4.47492 65.3754 5.47492L65.4004 18.5249Z" stroke="#212552" stroke-width="1.5" stroke-miterlimit="10" stroke-linecap="round" stroke-linejoin="round"/>
<path d="M95.1496 13.975L90.0996 13.275" stroke="#212552" stroke-width="1.5" stroke-miterlimit="10" stroke-linecap="round" stroke-linejoin="round"/>
<path d="M83.125 6.05L82.375 1" stroke="#212552" stroke-width="1.5" stroke-miterlimit="10" stroke-linecap="round" stroke-linejoin="round"/>
<path d="M88.125 7.875L91.75 4.25" stroke="#212552" stroke-width="1.5" stroke-miterlimit="10" stroke-linecap="round" stroke-linejoin="round"/>
</svg>
