<svg width="166" height="136" viewBox="0 0 166 136" fill="none" xmlns="http://www.w3.org/2000/svg">
<g opacity="0.15">
<path opacity="0.15" d="M1 47.4375H20.2696V56.8296H1" stroke="#474747" stroke-width="1.45614" stroke-miterlimit="10" stroke-linecap="round" stroke-linejoin="round"/>
<path opacity="0.15" d="M39.5149 56.8294H20.2695" stroke="#474747" stroke-width="1.45614" stroke-miterlimit="10" stroke-linecap="round" stroke-linejoin="round"/>
<path opacity="0.15" d="M20.2695 47.4375H27.6473" stroke="#474747" stroke-width="1.45614" stroke-miterlimit="10" stroke-linecap="round" stroke-linejoin="round"/>
<path opacity="0.15" d="M29.8801 56.8294H10.6348V66.2215H29.8801V56.8294Z" stroke="#474747" stroke-width="1.45614" stroke-miterlimit="10" stroke-linecap="round" stroke-linejoin="round"/>
<path opacity="0.15" d="M4.00977 66.2701H20.27V75.6623H14.0329" stroke="#474747" stroke-width="1.45614" stroke-miterlimit="10" stroke-linecap="round" stroke-linejoin="round"/>
<path opacity="0.15" d="M39.5149 66.2701H20.2695V75.6623H39.5149V66.2701Z" stroke="#474747" stroke-width="1.45614" stroke-miterlimit="10" stroke-linecap="round" stroke-linejoin="round"/>
<path opacity="0.15" d="M103.658 81.4384H122.928V90.8063H103.658" stroke="#474747" stroke-width="1.45614" stroke-miterlimit="10" stroke-linecap="round" stroke-linejoin="round"/>
<path opacity="0.15" d="M142.173 90.8063H122.928" stroke="#474747" stroke-width="1.45614" stroke-miterlimit="10" stroke-linecap="round" stroke-linejoin="round"/>
<path opacity="0.15" d="M122.928 81.4384H130.306" stroke="#474747" stroke-width="1.45614" stroke-miterlimit="10" stroke-linecap="round" stroke-linejoin="round"/>
<path opacity="0.15" d="M132.538 90.8063H113.293V100.198H132.538V90.8063Z" stroke="#474747" stroke-width="1.45614" stroke-miterlimit="10" stroke-linecap="round" stroke-linejoin="round"/>
<path opacity="0.15" d="M106.668 100.247H122.928V109.639H116.691" stroke="#474747" stroke-width="1.45614" stroke-miterlimit="10" stroke-linecap="round" stroke-linejoin="round"/>
<path opacity="0.15" d="M135.329 109.639H122.928V100.247H138.97" stroke="#474747" stroke-width="1.45614" stroke-miterlimit="10" stroke-linecap="round" stroke-linejoin="round"/>
<path opacity="0.15" d="M70.7502 12.2712H40.875V36.4917H70.7502V12.2712Z" stroke="#474747" stroke-width="1.45614" stroke-miterlimit="10" stroke-linecap="round" stroke-linejoin="round"/>
<path opacity="0.15" d="M45 30.8858L50.4605 22.9498L56.1395 29.9636" stroke="#474747" stroke-width="1.45614" stroke-miterlimit="10" stroke-linecap="round" stroke-linejoin="round"/>
<path opacity="0.15" d="M54.0527 27.3908L61.6975 19.9888L67.1095 30.8856" stroke="#474747" stroke-width="1.45614" stroke-miterlimit="10" stroke-linecap="round" stroke-linejoin="round"/>
<path opacity="0.15" d="M52.0625 24.9156C52.4508 23.775 53.5186 22.9498 54.7806 22.9498C55.8242 22.9498 56.7464 23.508 57.2561 24.3574" stroke="#474747" stroke-width="1.45614" stroke-miterlimit="10" stroke-linecap="round" stroke-linejoin="round"/>
<path opacity="0.15" d="M148.434 52.8491H105.939C104.362 52.8491 103.1 51.5871 103.1 50.0096C103.1 48.4322 104.362 47.1702 105.939 47.1702H148.434C150.012 47.1702 151.274 48.4322 151.274 50.0096C151.274 51.5871 150.012 52.8491 148.434 52.8491Z" stroke="#474747" stroke-width="1.45614" stroke-miterlimit="10" stroke-linecap="round" stroke-linejoin="round"/>
<path opacity="0.15" d="M133.825 47.1702H121.375L118.803 31.2739H136.422L133.825 47.1702Z" stroke="#474747" stroke-width="1.45614" stroke-miterlimit="10" stroke-linecap="round" stroke-linejoin="round"/>
<path opacity="0.15" d="M138.848 26.6629H116.447V31.274H138.848V26.6629Z" stroke="#474747" stroke-width="1.45614" stroke-miterlimit="10" stroke-linecap="round" stroke-linejoin="round"/>
<g opacity="0.15">
<path opacity="0.15" d="M130.5 26.663C128.971 26.663 127.442 26.663 125.913 26.663C124.651 22.2703 123.559 17.6592 123.704 13.1452C123.874 10.9852 126.204 9.16504 128.219 9.16504C130.233 9.16504 132.563 10.9852 132.733 13.1452C132.83 17.6592 131.738 22.2703 130.5 26.663Z" stroke="#474747" stroke-width="1.45614" stroke-miterlimit="10" stroke-linecap="round" stroke-linejoin="round"/>
</g>
<path opacity="0.15" d="M132.83 12.611L136.009 7.34465C136.616 6.32535 137.999 6.10693 138.897 6.88354C139.795 7.66015 139.771 9.04349 138.849 9.79583L132.879 14.6982" stroke="#474747" stroke-width="1.45614" stroke-miterlimit="10" stroke-linecap="round" stroke-linejoin="round"/>
<path opacity="0.15" d="M136.058 7.29628L134.553 2.58808C134.311 1.86001 134.796 1.10767 135.548 1.01059C136.301 0.913518 136.956 1.49597 136.956 2.24831L136.835 6.05855" stroke="#474747" stroke-width="1.45614" stroke-miterlimit="10" stroke-linecap="round" stroke-linejoin="round"/>
</g>
<path d="M93.8402 110.391L125.861 44.7047L94.1634 29.2524L62.1423 94.9388L93.8402 110.391Z" fill="#77BA85"/>
<path d="M93.8402 110.391L125.861 44.7047L94.1634 29.2524L62.1423 94.9388L93.8402 110.391Z" stroke="#474747" stroke-width="1.45614" stroke-miterlimit="10" stroke-linecap="round" stroke-linejoin="round"/>
<path d="M113.318 43.0687L103.174 38.1179C101.257 42.0737 96.4999 43.6997 92.544 41.7825L67.5469 93.0387L91.9858 104.955L116.983 53.6986C113.027 51.7813 111.377 47.0246 113.318 43.0687Z" fill="#F6F9EA"/>
<path d="M113.318 43.0687L103.174 38.1179C101.257 42.0737 96.4999 43.6997 92.544 41.7825L67.5469 93.0387L91.9858 104.955L116.983 53.6986C113.027 51.7813 111.377 47.0246 113.318 43.0687Z" stroke="#474747" stroke-width="1.45614" stroke-miterlimit="10" stroke-linecap="round" stroke-linejoin="round"/>
<path d="M120.463 46.5543L96.0293 34.6434L67.5496 93.0652L91.9829 104.976L120.463 46.5543Z" stroke="#474747" stroke-width="1.45614" stroke-miterlimit="10" stroke-linecap="round" stroke-linejoin="round"/>
<path d="M96.4259 73.0171C101.023 73.0171 104.75 69.2902 104.75 64.6928C104.75 60.0954 101.023 56.3685 96.4259 56.3685C91.8285 56.3685 88.1016 60.0954 88.1016 64.6928C88.1016 69.2902 91.8285 73.0171 96.4259 73.0171Z" fill="#77BA85"/>
<path d="M96.4259 73.0171C101.023 73.0171 104.75 69.2902 104.75 64.6928C104.75 60.0954 101.023 56.3685 96.4259 56.3685C91.8285 56.3685 88.1016 60.0954 88.1016 64.6928C88.1016 69.2902 91.8285 73.0171 96.4259 73.0171Z" stroke="#474747" stroke-width="1.45614" stroke-miterlimit="10" stroke-linecap="round" stroke-linejoin="round"/>
<path opacity="0.15" d="M3.79102 135H164.452" stroke="#474747" stroke-width="1.45614" stroke-miterlimit="10" stroke-linecap="round" stroke-linejoin="round"/>
<path d="M98.5382 135H47.5732C39.5401 135 33.0117 128.472 33.0117 120.439V63.164C33.0117 55.1309 39.5401 48.6025 47.5732 48.6025H98.5382C106.571 48.6025 113.1 55.1309 113.1 63.164V120.439C113.1 128.496 106.596 135 98.5382 135Z" fill="#F58870"/>
<path d="M98.5382 135H47.5732C39.5401 135 33.0117 128.472 33.0117 120.439V63.164C33.0117 55.1309 39.5401 48.6025 47.5732 48.6025H98.5382C106.571 48.6025 113.1 55.1309 113.1 63.164V120.439C113.1 128.496 106.596 135 98.5382 135Z" fill="#F58870"/>
<path d="M98.5382 132.064H47.5732C39.5401 132.064 33.0117 125.535 33.0117 117.502V120.439C33.0117 128.472 39.5401 135 47.5732 135H98.5382C106.571 135 113.1 128.472 113.1 120.439V117.502C113.1 125.535 106.596 132.064 98.5382 132.064Z" fill="#DD7868"/>
<path d="M98.5382 48.6025H47.5732C39.5401 48.6025 33.0117 54.597 33.0117 61.9748V65.1055C33.0117 57.7277 39.5401 51.7332 47.5732 51.7332H98.5382C106.571 51.7332 113.1 57.7277 113.1 65.1055V61.9748C113.1 54.597 106.596 48.6025 98.5382 48.6025Z" fill="#FFA399"/>
<path opacity="0.3" d="M81.5499 84.1567H68.4446C66.042 84.1567 64.0762 82.1909 64.0762 79.7883V52.971C64.0762 50.5683 66.042 48.6025 68.4446 48.6025H85.9183V79.7883C85.9183 82.1909 83.9768 84.1567 81.5499 84.1567Z" fill="#474747" stroke="#474747" stroke-width="1.45614" stroke-miterlimit="10" stroke-linecap="round" stroke-linejoin="round"/>
<path d="M98.5382 135H47.5732C39.5401 135 33.0117 128.472 33.0117 120.439V63.164C33.0117 55.1309 39.5401 48.6025 47.5732 48.6025H98.5382C106.571 48.6025 113.1 55.1309 113.1 63.164V120.439C113.1 128.496 106.596 135 98.5382 135Z" stroke="#474747" stroke-width="1.45614" stroke-miterlimit="10" stroke-linecap="round" stroke-linejoin="round"/>
<g opacity="0.46">
<path opacity="0.46" d="M38.3516 120.074V63.5275C38.3516 58.431 42.4773 54.3053 47.5738 54.3053H98.5389C103.635 54.3053 107.761 58.431 107.761 63.5275V120.05C107.761 125.147 103.635 129.272 98.5389 129.272H47.5738C42.4773 129.297 38.3516 125.171 38.3516 120.074Z" stroke="#474747" stroke-width="0.970762" stroke-linecap="round" stroke-linejoin="round" stroke-dasharray="3.39 3.39"/>
</g>
<path d="M79.6085 81.4871H66.5032C64.1006 81.4871 62.1348 79.5213 62.1348 77.1186V47.5104C62.1348 45.1078 64.1006 43.142 66.5032 43.142H79.6085C82.0111 43.142 83.9769 45.1078 83.9769 47.5104V77.1186C83.9769 79.5213 82.0354 81.4871 79.6085 81.4871Z" fill="#F79765"/>
<path d="M79.6085 79.4724H66.5032C64.1006 79.4724 62.1348 77.5066 62.1348 75.104V77.1183C62.1348 79.521 64.1006 81.4868 66.5032 81.4868H79.6085C82.0111 81.4868 83.9769 79.521 83.9769 77.1183V75.104C83.9769 77.5066 82.0354 79.4724 79.6085 79.4724Z" fill="#E27444"/>
<path d="M79.6085 43.142H66.5032C64.1006 43.142 62.1348 45.1078 62.1348 47.5104V49.1607C62.1348 46.7581 64.1006 44.7923 66.5032 44.7923H79.6085C82.0111 44.7923 83.9769 46.7581 83.9769 49.1607V47.5104C83.9769 45.1078 82.0354 43.142 79.6085 43.142Z" fill="#FFB797"/>
<path d="M79.6085 81.4871H66.5032C64.1006 81.4871 62.1348 79.5213 62.1348 77.1186V47.5104C62.1348 45.1078 64.1006 43.142 66.5032 43.142H79.6085C82.0111 43.142 83.9769 45.1078 83.9769 47.5104V77.1186C83.9769 79.5213 82.0354 81.4871 79.6085 81.4871Z" stroke="#474747" stroke-width="1.45614" stroke-miterlimit="10" stroke-linecap="round" stroke-linejoin="round"/>
<path opacity="0.3" d="M73.7847 75.2253C76.8943 75.2253 79.4151 72.7045 79.4151 69.5949C79.4151 66.4853 76.8943 63.9645 73.7847 63.9645C70.6751 63.9645 68.1543 66.4853 68.1543 69.5949C68.1543 72.7045 70.6751 75.2253 73.7847 75.2253Z" fill="#474747" stroke="#474747" stroke-width="1.45614" stroke-miterlimit="10" stroke-linecap="round" stroke-linejoin="round"/>
<g opacity="0.46">
<path opacity="0.46" d="M66.503 78.5748C65.7021 78.5748 65.0469 77.9195 65.0469 77.1186V47.5104C65.0469 46.7095 65.7021 46.0543 66.503 46.0543H79.6083C80.4092 46.0543 81.0645 46.7095 81.0645 47.5104V77.1186C81.0645 77.9195 80.4092 78.5748 79.6083 78.5748H66.503Z" stroke="#474747" stroke-width="0.970762" stroke-linecap="round" stroke-linejoin="round" stroke-dasharray="2.39 2.39"/>
</g>
<path d="M73.0562 73.7692C76.1658 73.7692 78.6866 71.2484 78.6866 68.1388C78.6866 65.0292 76.1658 62.5084 73.0562 62.5084C69.9466 62.5084 67.4258 65.0292 67.4258 68.1388C67.4258 71.2484 69.9466 73.7692 73.0562 73.7692Z" fill="#8F6D5D"/>
<path d="M73.0562 73.7692C76.1658 73.7692 78.6866 71.2484 78.6866 68.1388C78.6866 65.0292 76.1658 62.5084 73.0562 62.5084C69.9466 62.5084 67.4258 65.0292 67.4258 68.1388C67.4258 71.2484 69.9466 73.7692 73.0562 73.7692Z" stroke="#474747" stroke-width="1.45614" stroke-miterlimit="10" stroke-linecap="round" stroke-linejoin="round"/>
<g opacity="0.6">
<path opacity="0.6" d="M75.4331 65.2511C75.6273 66.1733 74.5352 66.7558 72.9334 67.0956C71.3074 67.4111 69.8512 67.4596 69.6571 66.683C69.4629 65.9307 70.5551 64.4988 72.1568 64.0377C73.7828 63.5766 75.239 64.3532 75.4331 65.2511Z" fill="#FFFCEE"/>
</g>
<path d="M154.09 135H137.102C136.131 135 135.33 134.199 135.33 133.228V132.039C135.33 131.068 136.131 130.268 137.102 130.268H154.09C155.061 130.268 155.862 131.068 155.862 132.039V133.228C155.862 134.223 155.061 135 154.09 135Z" fill="#FDB740"/>
<path opacity="0.88" d="M154.09 130.777H137.102C136.131 130.777 135.33 131.578 135.33 132.549V133.228C135.33 132.258 136.131 131.457 137.102 131.457H154.09C155.061 131.457 155.862 132.258 155.862 133.228V132.549C155.862 131.578 155.061 130.777 154.09 130.777Z" fill="#FFF3C0"/>
<path d="M154.09 134.466H137.102C136.131 134.466 135.33 133.665 135.33 132.694V132.015C135.33 132.986 136.131 133.786 137.102 133.786H154.09C155.061 133.786 155.862 132.986 155.862 132.015V132.694C155.862 133.689 155.061 134.466 154.09 134.466Z" fill="#F29E25"/>
<path d="M154.09 135H137.102C136.131 135 135.33 134.199 135.33 133.228V132.039C135.33 131.068 136.131 130.268 137.102 130.268H154.09C155.061 130.268 155.862 131.068 155.862 132.039V133.228C155.862 134.223 155.061 135 154.09 135Z" stroke="#474747" stroke-width="1.45614" stroke-miterlimit="10" stroke-linecap="round" stroke-linejoin="round"/>
<path d="M156.93 130.292H139.942C138.971 130.292 138.17 129.491 138.17 128.52V127.331C138.17 126.36 138.971 125.559 139.942 125.559H156.93C157.901 125.559 158.702 126.36 158.702 127.331V128.52C158.677 129.515 157.901 130.292 156.93 130.292Z" fill="#FDB740"/>
<path opacity="0.88" d="M156.93 126.069H139.942C138.971 126.069 138.17 126.869 138.17 127.84V128.52C138.17 127.549 138.971 126.748 139.942 126.748H156.93C157.901 126.748 158.702 127.549 158.702 128.52V127.84C158.677 126.869 157.901 126.069 156.93 126.069Z" fill="#FFF3C0"/>
<path d="M156.93 129.758H139.942C138.971 129.758 138.17 128.957 138.17 127.986V127.306C138.17 128.277 138.971 129.078 139.942 129.078H156.93C157.901 129.078 158.702 128.277 158.702 127.306V127.986C158.677 128.981 157.901 129.758 156.93 129.758Z" fill="#F29E25"/>
<path d="M156.93 130.292H139.942C138.971 130.292 138.17 129.491 138.17 128.52V127.331C138.17 126.36 138.971 125.559 139.942 125.559H156.93C157.901 125.559 158.702 126.36 158.702 127.331V128.52C158.677 129.515 157.901 130.292 156.93 130.292Z" stroke="#474747" stroke-width="1.45614" stroke-miterlimit="10" stroke-linecap="round" stroke-linejoin="round"/>
<path d="M154.09 125.583H137.102C136.131 125.583 135.33 124.783 135.33 123.812V122.623C135.33 121.652 136.131 120.851 137.102 120.851H154.09C155.061 120.851 155.862 121.652 155.862 122.623V123.812C155.862 124.807 155.061 125.583 154.09 125.583Z" fill="#FDB740"/>
<path opacity="0.88" d="M154.09 121.385H137.102C136.131 121.385 135.33 122.186 135.33 123.157V123.836C135.33 122.865 136.131 122.064 137.102 122.064H154.09C155.061 122.064 155.862 122.865 155.862 123.836V123.157C155.862 122.162 155.061 121.385 154.09 121.385Z" fill="#FFF3C0"/>
<path d="M154.09 125.074H137.102C136.131 125.074 135.33 124.273 135.33 123.302V122.623C135.33 123.594 136.131 124.394 137.102 124.394H154.09C155.061 124.394 155.862 123.594 155.862 122.623V123.302C155.862 124.273 155.061 125.074 154.09 125.074Z" fill="#F29E25"/>
<path d="M154.09 125.583H137.102C136.131 125.583 135.33 124.783 135.33 123.812V122.623C135.33 121.652 136.131 120.851 137.102 120.851H154.09C155.061 120.851 155.862 121.652 155.862 122.623V123.812C155.862 124.807 155.061 125.583 154.09 125.583Z" stroke="#474747" stroke-width="1.45614" stroke-miterlimit="10" stroke-linecap="round" stroke-linejoin="round"/>
<path d="M134.869 122.04L123.269 134.442C122.613 135.146 121.497 135.194 120.769 134.515L119.919 133.714C119.216 133.058 119.167 131.942 119.847 131.214L131.447 118.812C132.103 118.109 133.219 118.06 133.947 118.74L134.796 119.541C135.476 120.22 135.524 121.312 134.869 122.04Z" fill="#FDB740"/>
<path opacity="0.88" d="M131.787 119.152L120.187 131.554C119.532 132.258 119.556 133.374 120.26 134.053L120.769 134.515C120.065 133.859 120.017 132.743 120.696 132.015L132.297 119.613C132.952 118.91 134.069 118.861 134.797 119.541L134.287 119.079C133.559 118.4 132.443 118.448 131.787 119.152Z" fill="#FFF3C0"/>
<path d="M134.481 121.676L122.88 134.078C122.225 134.781 121.109 134.83 120.381 134.15L119.871 133.689C120.575 134.345 121.691 134.32 122.371 133.616L133.971 121.215C134.627 120.511 134.602 119.395 133.899 118.715L134.408 119.176C135.088 119.856 135.136 120.972 134.481 121.676Z" fill="#F29E25"/>
<path d="M134.869 122.04L123.269 134.442C122.613 135.146 121.497 135.194 120.769 134.515L119.919 133.714C119.216 133.058 119.167 131.942 119.847 131.214L131.447 118.812C132.103 118.109 133.219 118.06 133.947 118.74L134.796 119.541C135.476 120.22 135.524 121.312 134.869 122.04Z" stroke="#474747" stroke-width="1.45614" stroke-miterlimit="10" stroke-linecap="round" stroke-linejoin="round"/>
</svg>
